<mxfile host="app.diagrams.net" modified="2023-10-15T12:08:55.421Z" agent="Mozilla/5.0 (X11; Linux x86_64; rv:109.0) Gecko/20100101 Firefox/118.0" etag="lhfMiAdeE3kO_mLb3QNR" version="21.6.9" type="device">
  <diagram name="full" id="Dm6EvlOQiXeZlFGwlq5U">
    <mxGraphModel dx="1957" dy="2620" grid="1" gridSize="5" guides="1" tooltips="1" connect="1" arrows="1" fold="1" page="0" pageScale="1" pageWidth="827" pageHeight="1169" background="none" math="0" shadow="0">
      <root>
        <mxCell id="sGm70nYlVKe_CVyL53Ym-0" />
        <mxCell id="sGm70nYlVKe_CVyL53Ym-1" parent="sGm70nYlVKe_CVyL53Ym-0" />
        <mxCell id="sGm70nYlVKe_CVyL53Ym-269" value="" style="ellipse;whiteSpace=wrap;html=1;aspect=fixed;fontSize=16;fillColor=none;shadow=1;" parent="sGm70nYlVKe_CVyL53Ym-1" vertex="1">
          <mxGeometry x="457" y="-589.75" width="204.75" height="204.75" as="geometry" />
        </mxCell>
        <mxCell id="sGm70nYlVKe_CVyL53Ym-265" value="" style="ellipse;whiteSpace=wrap;html=1;aspect=fixed;fontSize=16;fillColor=none;shadow=1;" parent="sGm70nYlVKe_CVyL53Ym-1" vertex="1">
          <mxGeometry x="895.4" y="-372.5" width="145" height="145" as="geometry" />
        </mxCell>
        <mxCell id="sGm70nYlVKe_CVyL53Ym-264" value="" style="ellipse;whiteSpace=wrap;html=1;aspect=fixed;fontSize=16;fillColor=none;shadow=1;" parent="sGm70nYlVKe_CVyL53Ym-1" vertex="1">
          <mxGeometry x="1035.41" y="-466" width="166" height="166" as="geometry" />
        </mxCell>
        <mxCell id="sGm70nYlVKe_CVyL53Ym-267" value="" style="ellipse;whiteSpace=wrap;html=1;aspect=fixed;fontSize=16;fillColor=none;shadow=1;" parent="sGm70nYlVKe_CVyL53Ym-1" vertex="1">
          <mxGeometry x="676.3" y="-535.5" width="200.75" height="200.75" as="geometry" />
        </mxCell>
        <mxCell id="sGm70nYlVKe_CVyL53Ym-268" value="" style="ellipse;whiteSpace=wrap;html=1;aspect=fixed;fontSize=16;fillColor=none;shadow=1;" parent="sGm70nYlVKe_CVyL53Ym-1" vertex="1">
          <mxGeometry x="889.6499999999999" y="-553.25" width="153.25" height="153.25" as="geometry" />
        </mxCell>
        <mxCell id="sGm70nYlVKe_CVyL53Ym-270" value="" style="ellipse;whiteSpace=wrap;html=1;aspect=fixed;fontSize=16;fillColor=none;shadow=1;" parent="sGm70nYlVKe_CVyL53Ym-1" vertex="1">
          <mxGeometry x="1113.39" y="436" width="205" height="205" as="geometry" />
        </mxCell>
        <mxCell id="sGm70nYlVKe_CVyL53Ym-271" value="" style="ellipse;whiteSpace=wrap;html=1;aspect=fixed;fontSize=16;fillColor=none;shadow=1;" parent="sGm70nYlVKe_CVyL53Ym-1" vertex="1">
          <mxGeometry x="887.7800000000001" y="282" width="189" height="189" as="geometry" />
        </mxCell>
        <mxCell id="sGm70nYlVKe_CVyL53Ym-272" value="" style="ellipse;whiteSpace=wrap;html=1;aspect=fixed;fontSize=16;fillColor=none;shadow=1;" parent="sGm70nYlVKe_CVyL53Ym-1" vertex="1">
          <mxGeometry x="1032.09" y="641" width="249" height="249" as="geometry" />
        </mxCell>
        <mxCell id="sGm70nYlVKe_CVyL53Ym-273" value="" style="ellipse;whiteSpace=wrap;html=1;aspect=fixed;fontSize=16;fillColor=none;shadow=1;" parent="sGm70nYlVKe_CVyL53Ym-1" vertex="1">
          <mxGeometry x="852.65" y="740" width="180" height="180" as="geometry" />
        </mxCell>
        <mxCell id="sGm70nYlVKe_CVyL53Ym-274" value="" style="ellipse;whiteSpace=wrap;html=1;aspect=fixed;fontSize=16;fillColor=none;shadow=1;" parent="sGm70nYlVKe_CVyL53Ym-1" vertex="1">
          <mxGeometry x="-633.5" y="707.25" width="245.5" height="245.5" as="geometry" />
        </mxCell>
        <mxCell id="sGm70nYlVKe_CVyL53Ym-275" value="" style="ellipse;whiteSpace=wrap;html=1;aspect=fixed;fontSize=16;fillColor=none;shadow=1;" parent="sGm70nYlVKe_CVyL53Ym-1" vertex="1">
          <mxGeometry x="-895" y="415.5" width="260" height="260" as="geometry" />
        </mxCell>
        <mxCell id="sGm70nYlVKe_CVyL53Ym-276" value="" style="ellipse;whiteSpace=wrap;html=1;aspect=fixed;fontSize=16;fillColor=none;shadow=1;" parent="sGm70nYlVKe_CVyL53Ym-1" vertex="1">
          <mxGeometry x="-920" y="682.75" width="274.5" height="274.5" as="geometry" />
        </mxCell>
        <mxCell id="sGm70nYlVKe_CVyL53Ym-277" value="" style="ellipse;whiteSpace=wrap;html=1;aspect=fixed;fontSize=16;fillColor=none;shadow=1;" parent="sGm70nYlVKe_CVyL53Ym-1" vertex="1">
          <mxGeometry x="141.38000000000005" y="-560" width="150.25" height="150.25" as="geometry" />
        </mxCell>
        <mxCell id="sGm70nYlVKe_CVyL53Ym-289" value="" style="ellipse;whiteSpace=wrap;html=1;aspect=fixed;fontSize=16;fillColor=none;shadow=1;" parent="sGm70nYlVKe_CVyL53Ym-1" vertex="1">
          <mxGeometry x="-564.88" y="-599.99" width="225.25" height="225.25" as="geometry" />
        </mxCell>
        <mxCell id="clZRZakaBaFwRohTCUgK-28" value="" style="ellipse;whiteSpace=wrap;html=1;aspect=fixed;fontSize=16;fillColor=none;shadow=1;" parent="sGm70nYlVKe_CVyL53Ym-1" vertex="1">
          <mxGeometry x="1169.03" y="-119" width="186.12" height="186.12" as="geometry" />
        </mxCell>
        <mxCell id="clZRZakaBaFwRohTCUgK-31" value="" style="ellipse;whiteSpace=wrap;html=1;aspect=fixed;fontSize=16;fillColor=none;shadow=1;" parent="sGm70nYlVKe_CVyL53Ym-1" vertex="1">
          <mxGeometry x="1076.78" y="191" width="234" height="234" as="geometry" />
        </mxCell>
        <mxCell id="clZRZakaBaFwRohTCUgK-33" value="" style="ellipse;whiteSpace=wrap;html=1;aspect=fixed;fontSize=16;fillColor=none;shadow=1;" parent="sGm70nYlVKe_CVyL53Ym-1" vertex="1">
          <mxGeometry x="1040.3999999999999" y="-290" width="202" height="202" as="geometry" />
        </mxCell>
        <mxCell id="clZRZakaBaFwRohTCUgK-36" value="" style="ellipse;whiteSpace=wrap;html=1;aspect=fixed;fontSize=16;fillColor=none;shadow=1;" parent="sGm70nYlVKe_CVyL53Ym-1" vertex="1">
          <mxGeometry x="1032.65" y="12.000000000000028" width="179" height="179" as="geometry" />
        </mxCell>
        <mxCell id="sGm70nYlVKe_CVyL53Ym-2" value="&lt;div&gt;&lt;u&gt;PrivacyPolicy&lt;/u&gt;&lt;/div&gt;&lt;div align=&quot;left&quot;&gt;int: policyId&lt;/div&gt;&lt;div align=&quot;left&quot;&gt;str: policyWebsite&lt;/div&gt;&lt;div align=&quot;left&quot;&gt;date: policyUpdate&lt;br&gt;&lt;/div&gt;" style="rounded=1;whiteSpace=wrap;html=1;fontSize=15;fontStyle=3;fillColor=#d80073;fontColor=#ffffff;strokeColor=#A50040;shadow=1;fontFamily=Helvetica;" parent="sGm70nYlVKe_CVyL53Ym-1" vertex="1">
          <mxGeometry x="-460" y="-292.75" width="147.5" height="92" as="geometry" />
        </mxCell>
        <mxCell id="sGm70nYlVKe_CVyL53Ym-3" value="Mechanism" style="rounded=1;whiteSpace=wrap;html=1;fillColor=#fff2cc;strokeColor=#d6b656;fontSize=15;fontStyle=3;shadow=1;strokeWidth=5;fontFamily=Helvetica;" parent="sGm70nYlVKe_CVyL53Ym-1" vertex="1">
          <mxGeometry x="811.5200000000002" y="-240" width="100" height="40" as="geometry" />
        </mxCell>
        <mxCell id="sGm70nYlVKe_CVyL53Ym-4" value="Agent" style="rounded=1;whiteSpace=wrap;html=1;fillColor=#dae8fc;strokeColor=#FF0080;fontSize=15;fontStyle=3;shadow=1;strokeWidth=5;fontFamily=Helvetica;" parent="sGm70nYlVKe_CVyL53Ym-1" vertex="1">
          <mxGeometry x="-560" y="190" width="66" height="40" as="geometry" />
        </mxCell>
        <mxCell id="sGm70nYlVKe_CVyL53Ym-5" value="PolicyChange" style="rounded=1;whiteSpace=wrap;html=1;fillColor=#e1d5e7;strokeColor=#9673a6;fontSize=15;fontStyle=2;shadow=1;fontFamily=Helvetica;" parent="sGm70nYlVKe_CVyL53Ym-1" vertex="1">
          <mxGeometry x="385.58000000000004" y="486" width="110.19" height="40" as="geometry" />
        </mxCell>
        <mxCell id="sGm70nYlVKe_CVyL53Ym-6" value="DataControl" style="rounded=1;whiteSpace=wrap;html=1;fillColor=#e1d5e7;strokeColor=#9673a6;fontSize=15;fontStyle=2;shadow=1;fontFamily=Helvetica;" parent="sGm70nYlVKe_CVyL53Ym-1" vertex="1">
          <mxGeometry x="705.1200000000001" y="340" width="92.37" height="40" as="geometry" />
        </mxCell>
        <mxCell id="sGm70nYlVKe_CVyL53Ym-9" value="" style="endArrow=block;html=1;endFill=0;fontSize=15;fontStyle=2;curved=1;shadow=1;fontFamily=Helvetica;" parent="sGm70nYlVKe_CVyL53Ym-1" source="sGm70nYlVKe_CVyL53Ym-6" target="sGm70nYlVKe_CVyL53Ym-175" edge="1">
          <mxGeometry width="50" height="50" relative="1" as="geometry">
            <mxPoint x="715.92" y="424" as="sourcePoint" />
            <mxPoint x="514.1379310344828" y="-250" as="targetPoint" />
            <Array as="points">
              <mxPoint x="815" y="10" />
              <mxPoint x="345" y="-365" />
            </Array>
          </mxGeometry>
        </mxCell>
        <mxCell id="sGm70nYlVKe_CVyL53Ym-11" value="" style="endArrow=block;html=1;endFill=0;fontSize=15;fontStyle=2;curved=1;shadow=1;fontFamily=Helvetica;" parent="sGm70nYlVKe_CVyL53Ym-1" source="sGm70nYlVKe_CVyL53Ym-5" target="sGm70nYlVKe_CVyL53Ym-85" edge="1">
          <mxGeometry width="50" height="50" relative="1" as="geometry">
            <mxPoint x="927.5866666666665" y="544" as="sourcePoint" />
            <mxPoint x="508.07692307692287" y="-250" as="targetPoint" />
            <Array as="points">
              <mxPoint x="805" y="255" />
              <mxPoint x="600" y="-180" />
            </Array>
          </mxGeometry>
        </mxCell>
        <mxCell id="sGm70nYlVKe_CVyL53Ym-13" value="Breach" style="rounded=1;whiteSpace=wrap;html=1;fillColor=#e1d5e7;strokeColor=#9673a6;fontSize=15;fontStyle=2;shadow=1;fontFamily=Helvetica;" parent="sGm70nYlVKe_CVyL53Ym-1" vertex="1">
          <mxGeometry x="445.5200000000001" y="396" width="71" height="40" as="geometry" />
        </mxCell>
        <mxCell id="sGm70nYlVKe_CVyL53Ym-16" value="BreachConsequence" style="rounded=1;whiteSpace=wrap;html=1;fillColor=#1ba1e2;strokeColor=#006EAF;fontSize=15;fontStyle=2;fontColor=#ffffff;shadow=1;fontFamily=Helvetica;" parent="sGm70nYlVKe_CVyL53Ym-1" vertex="1">
          <mxGeometry x="731.23" y="700" width="155" height="40" as="geometry" />
        </mxCell>
        <mxCell id="sGm70nYlVKe_CVyL53Ym-17" value="BreachInvestigationTime" style="rounded=1;whiteSpace=wrap;html=1;fillColor=#ffe6cc;strokeColor=#d79b00;fontSize=15;fontStyle=2;shadow=1;fontFamily=Helvetica;" parent="sGm70nYlVKe_CVyL53Ym-1" vertex="1">
          <mxGeometry x="470.27000000000004" y="850" width="176" height="40" as="geometry" />
        </mxCell>
        <mxCell id="sGm70nYlVKe_CVyL53Ym-18" value="Cause" style="rounded=1;whiteSpace=wrap;html=1;fillColor=#008a00;strokeColor=#005700;fontSize=15;fontStyle=3;fontColor=#ffffff;shadow=1;glass=0;gradientColor=none;strokeWidth=5;fontFamily=Helvetica;" parent="sGm70nYlVKe_CVyL53Ym-1" vertex="1">
          <mxGeometry x="839.4000000000001" y="512.29" width="62" height="40" as="geometry" />
        </mxCell>
        <mxCell id="sGm70nYlVKe_CVyL53Ym-19" value="&lt;div&gt;RemoveCompromised&lt;/div&gt;&lt;div&gt;Information&lt;/div&gt;" style="rounded=1;whiteSpace=wrap;html=1;fillColor=#1ba1e2;strokeColor=#006EAF;fontSize=15;fontStyle=2;fontColor=#ffffff;shadow=1;fontFamily=Helvetica;" parent="sGm70nYlVKe_CVyL53Ym-1" vertex="1">
          <mxGeometry x="864.0299999999999" y="820" width="158.6" height="40" as="geometry" />
        </mxCell>
        <mxCell id="sGm70nYlVKe_CVyL53Ym-20" value="Compensation" style="rounded=1;whiteSpace=wrap;html=1;fillColor=#1ba1e2;strokeColor=#006EAF;fontSize=15;fontStyle=2;fontColor=#ffffff;shadow=1;fontFamily=Helvetica;" parent="sGm70nYlVKe_CVyL53Ym-1" vertex="1">
          <mxGeometry x="886.2299999999999" y="770" width="103.5" height="40" as="geometry" />
        </mxCell>
        <mxCell id="sGm70nYlVKe_CVyL53Ym-21" value="&lt;div&gt;NotificationTime&lt;/div&gt;" style="rounded=1;whiteSpace=wrap;html=1;fillColor=#ffe6cc;strokeColor=#d79b00;fontSize=15;fontStyle=2;shadow=1;fontFamily=Helvetica;" parent="sGm70nYlVKe_CVyL53Ym-1" vertex="1">
          <mxGeometry x="470.27" y="765.5" width="119" height="40" as="geometry" />
        </mxCell>
        <mxCell id="sGm70nYlVKe_CVyL53Ym-22" value="TimePeriod" style="rounded=1;whiteSpace=wrap;html=1;fillColor=#ffe6cc;strokeColor=#d79b00;fontSize=15;fontStyle=3;shadow=1;strokeWidth=5;fontFamily=Helvetica;" parent="sGm70nYlVKe_CVyL53Ym-1" vertex="1">
          <mxGeometry x="324.46" y="890" width="103" height="40" as="geometry" />
        </mxCell>
        <mxCell id="sGm70nYlVKe_CVyL53Ym-23" value="" style="endArrow=block;html=1;endFill=0;fontSize=15;fontStyle=2;shadow=1;fontFamily=Helvetica;" parent="sGm70nYlVKe_CVyL53Ym-1" source="sGm70nYlVKe_CVyL53Ym-21" target="sGm70nYlVKe_CVyL53Ym-22" edge="1">
          <mxGeometry width="50" height="50" relative="1" as="geometry">
            <mxPoint x="1505.75" y="1099.5" as="sourcePoint" />
            <mxPoint x="1505.75" y="1044.5" as="targetPoint" />
          </mxGeometry>
        </mxCell>
        <mxCell id="sGm70nYlVKe_CVyL53Ym-24" value="" style="endArrow=block;html=1;endFill=0;fontSize=15;fontStyle=2;shadow=1;fontFamily=Helvetica;" parent="sGm70nYlVKe_CVyL53Ym-1" source="sGm70nYlVKe_CVyL53Ym-17" target="sGm70nYlVKe_CVyL53Ym-22" edge="1">
          <mxGeometry width="50" height="50" relative="1" as="geometry">
            <mxPoint x="1335.75" y="1314.5" as="sourcePoint" />
            <mxPoint x="1305.75" y="1334.5" as="targetPoint" />
          </mxGeometry>
        </mxCell>
        <mxCell id="sGm70nYlVKe_CVyL53Ym-25" value="" style="endArrow=classic;html=1;dashed=1;fontSize=15;fontStyle=2;startArrow=none;curved=1;fillColor=#008a00;strokeColor=#005700;shadow=1;strokeWidth=2;fontFamily=Helvetica;" parent="sGm70nYlVKe_CVyL53Ym-1" source="sGm70nYlVKe_CVyL53Ym-13" target="sGm70nYlVKe_CVyL53Ym-77" edge="1">
          <mxGeometry width="50" height="50" relative="1" as="geometry">
            <mxPoint x="1706.6633333333332" y="492.34000000000003" as="sourcePoint" />
            <mxPoint x="1679.9966666666664" y="472.34000000000003" as="targetPoint" />
            <Array as="points" />
          </mxGeometry>
        </mxCell>
        <mxCell id="sGm70nYlVKe_CVyL53Ym-26" value="" style="endArrow=block;html=1;endFill=0;fontSize=15;fontStyle=2;shadow=1;fontFamily=Helvetica;curved=1;" parent="sGm70nYlVKe_CVyL53Ym-1" source="sGm70nYlVKe_CVyL53Ym-273" target="sGm70nYlVKe_CVyL53Ym-16" edge="1">
          <mxGeometry width="50" height="50" relative="1" as="geometry">
            <mxPoint x="1894.4566666666667" y="1208.1" as="sourcePoint" />
            <mxPoint x="1921.1233333333337" y="1228.1" as="targetPoint" />
          </mxGeometry>
        </mxCell>
        <mxCell id="sGm70nYlVKe_CVyL53Ym-27" value="" style="endArrow=block;html=1;endFill=0;fontSize=15;fontStyle=2;shadow=1;fontFamily=Helvetica;curved=1;" parent="sGm70nYlVKe_CVyL53Ym-1" source="sGm70nYlVKe_CVyL53Ym-218" target="sGm70nYlVKe_CVyL53Ym-16" edge="1">
          <mxGeometry width="50" height="50" relative="1" as="geometry">
            <mxPoint x="1904.4566666666667" y="1218.1" as="sourcePoint" />
            <mxPoint x="1931.1233333333337" y="1238.1" as="targetPoint" />
          </mxGeometry>
        </mxCell>
        <mxCell id="sGm70nYlVKe_CVyL53Ym-28" value="" style="endArrow=classic;html=1;dashed=1;fontSize=15;fontStyle=2;curved=1;fillColor=#1ba1e2;strokeColor=#006EAF;shadow=1;startArrow=none;strokeWidth=2;fontFamily=Helvetica;" parent="sGm70nYlVKe_CVyL53Ym-1" source="sGm70nYlVKe_CVyL53Ym-13" target="sGm70nYlVKe_CVyL53Ym-16" edge="1">
          <mxGeometry width="50" height="50" relative="1" as="geometry">
            <mxPoint x="1830" y="349.84000000000003" as="sourcePoint" />
            <mxPoint x="1750" y="334.84000000000003" as="targetPoint" />
            <Array as="points">
              <mxPoint x="798" y="497" />
            </Array>
          </mxGeometry>
        </mxCell>
        <mxCell id="sGm70nYlVKe_CVyL53Ym-29" value="" style="endArrow=classic;html=1;dashed=1;fontSize=15;fontStyle=2;curved=1;fillColor=#ffe6cc;strokeColor=#d79b00;shadow=1;strokeWidth=2;fontFamily=Helvetica;" parent="sGm70nYlVKe_CVyL53Ym-1" source="sGm70nYlVKe_CVyL53Ym-218" target="sGm70nYlVKe_CVyL53Ym-17" edge="1">
          <mxGeometry width="50" height="50" relative="1" as="geometry">
            <mxPoint x="63.33333333333326" y="450" as="sourcePoint" />
            <mxPoint x="10" y="400" as="targetPoint" />
            <Array as="points">
              <mxPoint x="710" y="860" />
            </Array>
          </mxGeometry>
        </mxCell>
        <mxCell id="sGm70nYlVKe_CVyL53Ym-30" value="" style="endArrow=classic;html=1;dashed=1;fontSize=15;fontStyle=2;curved=1;fillColor=#ffe6cc;strokeColor=#d79b00;shadow=1;strokeWidth=2;fontFamily=Helvetica;" parent="sGm70nYlVKe_CVyL53Ym-1" source="clZRZakaBaFwRohTCUgK-6" target="sGm70nYlVKe_CVyL53Ym-21" edge="1">
          <mxGeometry width="50" height="50" relative="1" as="geometry">
            <mxPoint x="564.7545454545452" y="-10" as="sourcePoint" />
            <mxPoint x="-14.347826086956502" y="390" as="targetPoint" />
            <Array as="points">
              <mxPoint x="750" y="340" />
            </Array>
          </mxGeometry>
        </mxCell>
        <mxCell id="sGm70nYlVKe_CVyL53Ym-31" value="User" style="rounded=1;whiteSpace=wrap;html=1;fillColor=#dae8fc;strokeColor=#6c8ebf;fontSize=15;fontStyle=2;shadow=1;fontFamily=Helvetica;" parent="sGm70nYlVKe_CVyL53Ym-1" vertex="1">
          <mxGeometry x="-346" y="528" width="54" height="40" as="geometry" />
        </mxCell>
        <mxCell id="sGm70nYlVKe_CVyL53Ym-32" value="Criminal" style="rounded=1;whiteSpace=wrap;html=1;fillColor=#dae8fc;strokeColor=#6c8ebf;fontSize=15;fontStyle=2;shadow=1;fontFamily=Helvetica;" parent="sGm70nYlVKe_CVyL53Ym-1" vertex="1">
          <mxGeometry x="-354.12" y="343.5" width="70.25" height="40" as="geometry" />
        </mxCell>
        <mxCell id="sGm70nYlVKe_CVyL53Ym-33" value="ThirdParty" style="rounded=1;whiteSpace=wrap;html=1;fillColor=#dae8fc;strokeColor=#6c8ebf;fontSize=15;fontStyle=2;shadow=1;fontFamily=Helvetica;" parent="sGm70nYlVKe_CVyL53Ym-1" vertex="1">
          <mxGeometry x="-358" y="35" width="78" height="40" as="geometry" />
        </mxCell>
        <mxCell id="sGm70nYlVKe_CVyL53Ym-34" value="NonPersonalData" style="rounded=1;whiteSpace=wrap;html=1;fillColor=#f5f5f5;fontColor=#333333;strokeColor=#666666;fontSize=15;fontStyle=2;shadow=1;fontFamily=Helvetica;" parent="sGm70nYlVKe_CVyL53Ym-1" vertex="1">
          <mxGeometry x="-174.49" y="790" width="150" height="40" as="geometry" />
        </mxCell>
        <mxCell id="sGm70nYlVKe_CVyL53Ym-35" value="SensitiveData" style="rounded=1;whiteSpace=wrap;html=1;fillColor=#f5f5f5;fontColor=#333333;strokeColor=#666666;fontSize=15;fontStyle=2;shadow=1;fontFamily=Helvetica;" parent="sGm70nYlVKe_CVyL53Ym-1" vertex="1">
          <mxGeometry x="-380" y="795.5" width="111" height="40" as="geometry" />
        </mxCell>
        <mxCell id="sGm70nYlVKe_CVyL53Ym-36" value="PersonalData" style="rounded=1;whiteSpace=wrap;html=1;fillColor=#f5f5f5;fontColor=#333333;strokeColor=#666666;fontSize=15;fontStyle=2;shadow=1;fontFamily=Helvetica;" parent="sGm70nYlVKe_CVyL53Ym-1" vertex="1">
          <mxGeometry x="-228.49" y="850" width="100" height="40" as="geometry" />
        </mxCell>
        <mxCell id="sGm70nYlVKe_CVyL53Ym-37" value="TrackingData" style="rounded=1;whiteSpace=wrap;html=1;fillColor=#f5f5f5;fontColor=#333333;strokeColor=#666666;fontSize=15;fontStyle=2;shadow=1;fontFamily=Helvetica;" parent="sGm70nYlVKe_CVyL53Ym-1" vertex="1">
          <mxGeometry x="-506.63" y="842.75" width="100" height="40" as="geometry" />
        </mxCell>
        <mxCell id="sGm70nYlVKe_CVyL53Ym-38" value="AccountData" style="rounded=1;whiteSpace=wrap;html=1;fillColor=#f5f5f5;fontColor=#333333;strokeColor=#666666;fontSize=15;fontStyle=2;shadow=1;fontFamily=Helvetica;" parent="sGm70nYlVKe_CVyL53Ym-1" vertex="1">
          <mxGeometry x="-615.37" y="842.75" width="99.24" height="40" as="geometry" />
        </mxCell>
        <mxCell id="sGm70nYlVKe_CVyL53Ym-39" value="ApplicationData" style="rounded=1;whiteSpace=wrap;html=1;fillColor=#f5f5f5;fontColor=#333333;strokeColor=#666666;fontSize=15;fontStyle=2;shadow=1;fontFamily=Helvetica;" parent="sGm70nYlVKe_CVyL53Ym-1" vertex="1">
          <mxGeometry x="-619.38" y="792.75" width="112.75" height="40" as="geometry" />
        </mxCell>
        <mxCell id="sGm70nYlVKe_CVyL53Ym-40" value="DeviceData" style="rounded=1;whiteSpace=wrap;html=1;fillColor=#f5f5f5;fontColor=#333333;strokeColor=#666666;fontSize=15;fontStyle=2;shadow=1;fontFamily=Helvetica;" parent="sGm70nYlVKe_CVyL53Ym-1" vertex="1">
          <mxGeometry x="-497.88" y="792.75" width="91.25" height="40" as="geometry" />
        </mxCell>
        <mxCell id="sGm70nYlVKe_CVyL53Ym-41" value="FinancialData" style="rounded=1;whiteSpace=wrap;html=1;fillColor=#f5f5f5;fontColor=#333333;strokeColor=#666666;fontSize=15;fontStyle=2;shadow=1;fontFamily=Helvetica;" parent="sGm70nYlVKe_CVyL53Ym-1" vertex="1">
          <mxGeometry x="-556.88" y="742.75" width="95.26" height="40" as="geometry" />
        </mxCell>
        <mxCell id="sGm70nYlVKe_CVyL53Ym-42" value="BiometricData" style="rounded=1;whiteSpace=wrap;html=1;fillColor=#f5f5f5;fontColor=#333333;strokeColor=#666666;fontSize=15;fontStyle=2;shadow=1;fontFamily=Helvetica;" parent="sGm70nYlVKe_CVyL53Ym-1" vertex="1">
          <mxGeometry x="-775" y="822.75" width="111" height="40" as="geometry" />
        </mxCell>
        <mxCell id="sGm70nYlVKe_CVyL53Ym-43" value="CrimeData" style="rounded=1;whiteSpace=wrap;html=1;fillColor=#f5f5f5;fontColor=#333333;strokeColor=#666666;fontSize=15;fontStyle=2;shadow=1;fontFamily=Helvetica;" parent="sGm70nYlVKe_CVyL53Ym-1" vertex="1">
          <mxGeometry x="-858.5" y="772.75" width="80" height="40" as="geometry" />
        </mxCell>
        <mxCell id="sGm70nYlVKe_CVyL53Ym-44" value="GenericData" style="rounded=1;whiteSpace=wrap;html=1;fillColor=#f5f5f5;fontColor=#333333;strokeColor=#666666;fontSize=15;fontStyle=2;shadow=1;fontFamily=Helvetica;" parent="sGm70nYlVKe_CVyL53Ym-1" vertex="1">
          <mxGeometry x="-830" y="722.75" width="100" height="40" as="geometry" />
        </mxCell>
        <mxCell id="sGm70nYlVKe_CVyL53Ym-45" value="HealthData" style="rounded=1;whiteSpace=wrap;html=1;fillColor=#f5f5f5;fontColor=#333333;strokeColor=#666666;fontSize=15;fontStyle=2;shadow=1;fontFamily=Helvetica;" parent="sGm70nYlVKe_CVyL53Ym-1" vertex="1">
          <mxGeometry x="-759.5" y="772.75" width="85" height="40" as="geometry" />
        </mxCell>
        <mxCell id="sGm70nYlVKe_CVyL53Ym-46" value="RacialData" style="rounded=1;whiteSpace=wrap;html=1;fillColor=#f5f5f5;fontColor=#333333;strokeColor=#666666;fontSize=15;fontStyle=2;shadow=1;fontFamily=Helvetica;" parent="sGm70nYlVKe_CVyL53Ym-1" vertex="1">
          <mxGeometry x="-900" y="822.75" width="90" height="40" as="geometry" />
        </mxCell>
        <mxCell id="sGm70nYlVKe_CVyL53Ym-47" value="ReligionData" style="rounded=1;whiteSpace=wrap;html=1;fillColor=#f5f5f5;fontColor=#333333;strokeColor=#666666;fontSize=15;fontStyle=2;shadow=1;fontFamily=Helvetica;" parent="sGm70nYlVKe_CVyL53Ym-1" vertex="1">
          <mxGeometry x="-840" y="872.75" width="99" height="40" as="geometry" />
        </mxCell>
        <mxCell id="sGm70nYlVKe_CVyL53Ym-48" value="" style="endArrow=block;html=1;endFill=0;fontSize=15;fontStyle=2;shadow=1;curved=1;fontFamily=Helvetica;" parent="sGm70nYlVKe_CVyL53Ym-1" source="sGm70nYlVKe_CVyL53Ym-35" target="sGm70nYlVKe_CVyL53Ym-36" edge="1">
          <mxGeometry width="50" height="50" relative="1" as="geometry">
            <mxPoint x="-14.810000000000002" y="1537.98" as="sourcePoint" />
            <mxPoint x="-480.9987755102043" y="699" as="targetPoint" />
            <Array as="points">
              <mxPoint x="-260" y="860" />
            </Array>
          </mxGeometry>
        </mxCell>
        <mxCell id="sGm70nYlVKe_CVyL53Ym-49" value="" style="endArrow=block;html=1;endFill=0;fontSize=15;fontStyle=2;shadow=1;fontFamily=Helvetica;" parent="sGm70nYlVKe_CVyL53Ym-1" source="sGm70nYlVKe_CVyL53Ym-274" target="sGm70nYlVKe_CVyL53Ym-120" edge="1">
          <mxGeometry width="50" height="50" relative="1" as="geometry">
            <mxPoint x="-81.27923076923071" y="1577.98" as="sourcePoint" />
            <mxPoint x="-60.800769230768765" y="1667.98" as="targetPoint" />
          </mxGeometry>
        </mxCell>
        <mxCell id="sGm70nYlVKe_CVyL53Ym-50" value="" style="endArrow=block;html=1;endFill=0;fontSize=15;fontStyle=2;shadow=1;fontFamily=Helvetica;curved=1;" parent="sGm70nYlVKe_CVyL53Ym-1" source="sGm70nYlVKe_CVyL53Ym-276" target="sGm70nYlVKe_CVyL53Ym-35" edge="1">
          <mxGeometry width="50" height="50" relative="1" as="geometry">
            <mxPoint x="261.94" y="1367.54" as="sourcePoint" />
            <mxPoint x="207.4248484848485" y="1677.54" as="targetPoint" />
            <Array as="points">
              <mxPoint x="-470" y="600" />
            </Array>
          </mxGeometry>
        </mxCell>
        <mxCell id="sGm70nYlVKe_CVyL53Ym-51" value="" style="endArrow=block;html=1;endFill=0;fontSize=15;fontStyle=2;shadow=1;curved=1;fontFamily=Helvetica;" parent="sGm70nYlVKe_CVyL53Ym-1" source="sGm70nYlVKe_CVyL53Ym-34" target="sGm70nYlVKe_CVyL53Ym-146" edge="1">
          <mxGeometry width="50" height="50" relative="1" as="geometry">
            <mxPoint x="-100.83333333333348" y="1587.98" as="sourcePoint" />
            <mxPoint x="54.639796659404965" y="1751.12" as="targetPoint" />
            <Array as="points" />
          </mxGeometry>
        </mxCell>
        <mxCell id="sGm70nYlVKe_CVyL53Ym-52" value="" style="endArrow=block;html=1;endFill=0;fontSize=15;fontStyle=2;shadow=1;fontFamily=Helvetica;curved=1;" parent="sGm70nYlVKe_CVyL53Ym-1" source="sGm70nYlVKe_CVyL53Ym-36" target="sGm70nYlVKe_CVyL53Ym-146" edge="1">
          <mxGeometry width="50" height="50" relative="1" as="geometry">
            <mxPoint x="-90.83333333333348" y="1597.98" as="sourcePoint" />
            <mxPoint x="-11.80900508351533" y="1751.12" as="targetPoint" />
          </mxGeometry>
        </mxCell>
        <mxCell id="sGm70nYlVKe_CVyL53Ym-53" value="LegalBasis" style="rounded=1;whiteSpace=wrap;html=1;fillColor=#fa6800;strokeColor=#C73500;fontSize=15;fontStyle=2;fontColor=#000000;shadow=1;fontFamily=Helvetica;" parent="sGm70nYlVKe_CVyL53Ym-1" vertex="1">
          <mxGeometry x="-186.9" y="-440" width="89.75" height="40" as="geometry" />
        </mxCell>
        <mxCell id="sGm70nYlVKe_CVyL53Ym-54" value="Mode" style="rounded=1;whiteSpace=wrap;html=1;fillColor=#e3c800;strokeColor=#B09500;fontSize=15;fontStyle=3;fontColor=#000000;shadow=1;strokeWidth=5;fontFamily=Helvetica;" parent="sGm70nYlVKe_CVyL53Ym-1" vertex="1">
          <mxGeometry x="333.8399999999998" y="-472.75" width="84.25" height="40" as="geometry" />
        </mxCell>
        <mxCell id="sGm70nYlVKe_CVyL53Ym-55" value="UserSpecialCategory" style="rounded=1;whiteSpace=wrap;html=1;fillColor=#76608a;strokeColor=#432D57;fontSize=15;fontStyle=3;fontColor=#ffffff;shadow=1;fontFamily=Helvetica;strokeWidth=5;" parent="sGm70nYlVKe_CVyL53Ym-1" vertex="1">
          <mxGeometry x="-628.5" y="626.5" width="159" height="40" as="geometry" />
        </mxCell>
        <mxCell id="sGm70nYlVKe_CVyL53Ym-56" value="DataActivityPurpose" style="rounded=1;whiteSpace=wrap;html=1;fillColor=#6a00ff;strokeColor=#3700CC;fontSize=15;fontStyle=2;fontColor=#ffffff;shadow=1;fontFamily=Helvetica;" parent="sGm70nYlVKe_CVyL53Ym-1" vertex="1">
          <mxGeometry x="-95.2200000000002" y="-508.57" width="150" height="40" as="geometry" />
        </mxCell>
        <mxCell id="sGm70nYlVKe_CVyL53Ym-57" value="SecurityMechanism" style="rounded=1;whiteSpace=wrap;html=1;fillColor=#fff2cc;strokeColor=#d6b656;fontSize=15;fontStyle=2;shadow=1;fontFamily=Helvetica;" parent="sGm70nYlVKe_CVyL53Ym-1" vertex="1">
          <mxGeometry x="619.22" y="-220" width="147" height="40" as="geometry" />
        </mxCell>
        <mxCell id="sGm70nYlVKe_CVyL53Ym-60" value="" style="endArrow=block;html=1;endFill=0;fontSize=15;fontStyle=2;curved=1;shadow=1;fontFamily=Helvetica;" parent="sGm70nYlVKe_CVyL53Ym-1" source="sGm70nYlVKe_CVyL53Ym-177" target="sGm70nYlVKe_CVyL53Ym-3" edge="1">
          <mxGeometry width="50" height="50" relative="1" as="geometry">
            <mxPoint x="1234.4489153833415" y="-1516.46" as="sourcePoint" />
            <mxPoint x="1249.0510846166585" y="-1314.9" as="targetPoint" />
            <Array as="points">
              <mxPoint x="860" y="-150" />
            </Array>
          </mxGeometry>
        </mxCell>
        <mxCell id="sGm70nYlVKe_CVyL53Ym-61" value="" style="endArrow=block;html=1;endFill=0;fontSize=15;fontStyle=2;curved=1;shadow=1;fontFamily=Helvetica;" parent="sGm70nYlVKe_CVyL53Ym-1" source="sGm70nYlVKe_CVyL53Ym-57" target="sGm70nYlVKe_CVyL53Ym-3" edge="1">
          <mxGeometry width="50" height="50" relative="1" as="geometry">
            <mxPoint x="864.9034414459024" y="-1923.96" as="sourcePoint" />
            <mxPoint x="708.139905548996" y="-1901.31" as="targetPoint" />
            <Array as="points">
              <mxPoint x="810" y="-170" />
            </Array>
          </mxGeometry>
        </mxCell>
        <mxCell id="sGm70nYlVKe_CVyL53Ym-63" value="TechnicalMeasures" style="rounded=1;whiteSpace=wrap;html=1;fillColor=#fff2cc;strokeColor=#d6b656;fontSize=15;fontStyle=2;shadow=1;fontFamily=Helvetica;" parent="sGm70nYlVKe_CVyL53Ym-1" vertex="1">
          <mxGeometry x="589.7900000000001" y="-292.75" width="149" height="40" as="geometry" />
        </mxCell>
        <mxCell id="sGm70nYlVKe_CVyL53Ym-64" value="OrganizationalMeasures" style="rounded=1;whiteSpace=wrap;html=1;fillColor=#fff2cc;strokeColor=#d6b656;fontSize=15;fontStyle=2;shadow=1;fontFamily=Helvetica;" parent="sGm70nYlVKe_CVyL53Ym-1" vertex="1">
          <mxGeometry x="452.99999999999994" y="-360" width="177" height="40" as="geometry" />
        </mxCell>
        <mxCell id="sGm70nYlVKe_CVyL53Ym-65" value="Encryption" style="rounded=1;whiteSpace=wrap;html=1;fillColor=#fff2cc;strokeColor=#d6b656;fontSize=15;fontStyle=2;shadow=1;fontFamily=Helvetica;" parent="sGm70nYlVKe_CVyL53Ym-1" vertex="1">
          <mxGeometry x="773.0299999999999" y="-320" width="91" height="40" as="geometry" />
        </mxCell>
        <mxCell id="sGm70nYlVKe_CVyL53Ym-67" value="" style="endArrow=block;html=1;endFill=0;fontSize=15;fontStyle=2;curved=1;shadow=1;fontFamily=Helvetica;" parent="sGm70nYlVKe_CVyL53Ym-1" source="sGm70nYlVKe_CVyL53Ym-65" target="sGm70nYlVKe_CVyL53Ym-63" edge="1">
          <mxGeometry width="50" height="50" relative="1" as="geometry">
            <mxPoint x="1262.32" y="-1269.0900000000001" as="sourcePoint" />
            <mxPoint x="1392.32" y="-1283.588823529412" as="targetPoint" />
          </mxGeometry>
        </mxCell>
        <mxCell id="sGm70nYlVKe_CVyL53Ym-68" value="" style="endArrow=block;html=1;endFill=0;fontSize=15;fontStyle=2;curved=1;shadow=1;fontFamily=Helvetica;" parent="sGm70nYlVKe_CVyL53Ym-1" source="sGm70nYlVKe_CVyL53Ym-64" target="sGm70nYlVKe_CVyL53Ym-57" edge="1">
          <mxGeometry width="50" height="50" relative="1" as="geometry">
            <mxPoint x="992.41" y="-1392.2638461538463" as="sourcePoint" />
            <mxPoint x="1037.41" y="-1389.956153846154" as="targetPoint" />
            <Array as="points">
              <mxPoint x="560" y="-240" />
            </Array>
          </mxGeometry>
        </mxCell>
        <mxCell id="sGm70nYlVKe_CVyL53Ym-69" value="" style="endArrow=block;html=1;endFill=0;fontSize=15;fontStyle=2;curved=1;shadow=1;fontFamily=Helvetica;" parent="sGm70nYlVKe_CVyL53Ym-1" source="sGm70nYlVKe_CVyL53Ym-63" target="sGm70nYlVKe_CVyL53Ym-57" edge="1">
          <mxGeometry width="50" height="50" relative="1" as="geometry">
            <mxPoint x="1157.41" y="-1345.6752173913046" as="sourcePoint" />
            <mxPoint x="1237.41" y="-1366.5447826086956" as="targetPoint" />
            <Array as="points">
              <mxPoint x="680" y="-240" />
            </Array>
          </mxGeometry>
        </mxCell>
        <mxCell id="sGm70nYlVKe_CVyL53Ym-71" value="OnServiceApp" style="rounded=1;whiteSpace=wrap;html=1;fillColor=#d5e8d4;strokeColor=#82b366;fontSize=15;fontStyle=2;shadow=1;fontFamily=Helvetica;" parent="sGm70nYlVKe_CVyL53Ym-1" vertex="1">
          <mxGeometry x="1087.3999999999999" y="-159" width="108" height="40" as="geometry" />
        </mxCell>
        <mxCell id="sGm70nYlVKe_CVyL53Ym-72" value="InPrivacyPolicy" style="rounded=1;whiteSpace=wrap;html=1;fillColor=#d5e8d4;strokeColor=#82b366;fontSize=15;fontStyle=2;shadow=1;fontFamily=Helvetica;" parent="sGm70nYlVKe_CVyL53Ym-1" vertex="1">
          <mxGeometry x="1079.3999999999999" y="-256" width="116" height="40" as="geometry" />
        </mxCell>
        <mxCell id="sGm70nYlVKe_CVyL53Ym-77" value="BreachCause" style="rounded=1;whiteSpace=wrap;html=1;fillColor=#008a00;strokeColor=#005700;fontSize=15;fontStyle=2;fontColor=#ffffff;shadow=1;fontFamily=Helvetica;" parent="sGm70nYlVKe_CVyL53Ym-1" vertex="1">
          <mxGeometry x="969.9000000000001" y="488" width="109.5" height="40" as="geometry" />
        </mxCell>
        <mxCell id="sGm70nYlVKe_CVyL53Ym-78" value="Intentional" style="rounded=1;whiteSpace=wrap;html=1;fillColor=#008a00;strokeColor=#005700;fontSize=15;fontStyle=2;fontColor=#ffffff;shadow=1;fontFamily=Helvetica;" parent="sGm70nYlVKe_CVyL53Ym-1" vertex="1">
          <mxGeometry x="945.2799999999999" y="406.5" width="90" height="40" as="geometry" />
        </mxCell>
        <mxCell id="sGm70nYlVKe_CVyL53Ym-79" value="Unintentional" style="rounded=1;whiteSpace=wrap;html=1;fillColor=#008a00;strokeColor=#005700;fontSize=15;fontStyle=2;fontColor=#ffffff;shadow=1;fontFamily=Helvetica;" parent="sGm70nYlVKe_CVyL53Ym-1" vertex="1">
          <mxGeometry x="909.35" y="356.5" width="104.25" height="40" as="geometry" />
        </mxCell>
        <mxCell id="sGm70nYlVKe_CVyL53Ym-80" value="" style="endArrow=block;html=1;endFill=0;fontSize=15;fontStyle=2;curved=1;shadow=1;fontFamily=Helvetica;" parent="sGm70nYlVKe_CVyL53Ym-1" source="sGm70nYlVKe_CVyL53Ym-77" target="sGm70nYlVKe_CVyL53Ym-18" edge="1">
          <mxGeometry width="50" height="50" relative="1" as="geometry">
            <mxPoint x="2121.7200000000003" y="1280.21" as="sourcePoint" />
            <mxPoint x="2221.7200000000003" y="1280.21" as="targetPoint" />
            <Array as="points" />
          </mxGeometry>
        </mxCell>
        <mxCell id="sGm70nYlVKe_CVyL53Ym-81" value="" style="endArrow=block;html=1;endFill=0;fontSize=15;fontStyle=2;shadow=1;fontFamily=Helvetica;" parent="sGm70nYlVKe_CVyL53Ym-1" source="sGm70nYlVKe_CVyL53Ym-271" target="sGm70nYlVKe_CVyL53Ym-77" edge="1">
          <mxGeometry width="50" height="50" relative="1" as="geometry">
            <mxPoint x="2033.7200000000003" y="997.0500000000001" as="sourcePoint" />
            <mxPoint x="2083.7200000000003" y="997.0500000000001" as="targetPoint" />
          </mxGeometry>
        </mxCell>
        <mxCell id="sGm70nYlVKe_CVyL53Ym-82" value="DataTransmissionMode" style="rounded=1;whiteSpace=wrap;html=1;fillColor=#e3c800;strokeColor=#B09500;fontSize=15;fontStyle=2;fontColor=#000000;shadow=1;fontFamily=Helvetica;" parent="sGm70nYlVKe_CVyL53Ym-1" vertex="1">
          <mxGeometry x="253.95" y="-400" width="166.05" height="40" as="geometry" />
        </mxCell>
        <mxCell id="sGm70nYlVKe_CVyL53Ym-84" value="" style="endArrow=classic;html=1;dashed=1;fontSize=15;fontStyle=2;shadow=1;fillColor=#76608a;strokeColor=#432D57;strokeWidth=2;fontFamily=Helvetica;" parent="sGm70nYlVKe_CVyL53Ym-1" source="sGm70nYlVKe_CVyL53Ym-31" target="sGm70nYlVKe_CVyL53Ym-55" edge="1">
          <mxGeometry width="50" height="50" relative="1" as="geometry">
            <mxPoint x="389.5" y="46.639999999999986" as="sourcePoint" />
            <mxPoint x="357" y="6.639999999999986" as="targetPoint" />
          </mxGeometry>
        </mxCell>
        <mxCell id="sGm70nYlVKe_CVyL53Ym-85" value="DataActivity" style="rounded=1;whiteSpace=wrap;html=1;fillColor=#e1d5e7;strokeColor=#9673a6;fontSize=15;fontStyle=2;shadow=1;fontFamily=Helvetica;" parent="sGm70nYlVKe_CVyL53Ym-1" vertex="1">
          <mxGeometry x="210" y="-292.75" width="90" height="40" as="geometry" />
        </mxCell>
        <mxCell id="sGm70nYlVKe_CVyL53Ym-86" value="" style="endArrow=classic;html=1;dashed=1;fontSize=15;fontStyle=2;fillColor=#fa6800;strokeColor=#C73500;curved=1;shadow=1;strokeWidth=2;fontFamily=Helvetica;" parent="sGm70nYlVKe_CVyL53Ym-1" source="sGm70nYlVKe_CVyL53Ym-85" target="sGm70nYlVKe_CVyL53Ym-53" edge="1">
          <mxGeometry width="50" height="50" relative="1" as="geometry">
            <mxPoint x="898.2973333333334" y="315.08000000000004" as="sourcePoint" />
            <mxPoint x="897.6226666666666" y="205.07999999999993" as="targetPoint" />
            <Array as="points">
              <mxPoint x="140" y="-460" />
            </Array>
          </mxGeometry>
        </mxCell>
        <mxCell id="sGm70nYlVKe_CVyL53Ym-87" value="" style="endArrow=block;html=1;endFill=0;fontSize=15;fontStyle=2;curved=1;shadow=1;fontFamily=Helvetica;" parent="sGm70nYlVKe_CVyL53Ym-1" source="sGm70nYlVKe_CVyL53Ym-85" target="sGm70nYlVKe_CVyL53Ym-175" edge="1">
          <mxGeometry width="50" height="50" relative="1" as="geometry">
            <mxPoint x="879.6149999999998" y="449" as="sourcePoint" />
            <mxPoint x="880.3050000000003" y="329" as="targetPoint" />
            <Array as="points">
              <mxPoint x="170" y="-340" />
            </Array>
          </mxGeometry>
        </mxCell>
        <mxCell id="sGm70nYlVKe_CVyL53Ym-88" value="" style="endArrow=classic;html=1;dashed=1;fontSize=15;fontStyle=2;fillColor=#0050ef;strokeColor=#001DBC;curved=1;shadow=1;strokeWidth=2;fontFamily=Helvetica;" parent="sGm70nYlVKe_CVyL53Ym-1" source="sGm70nYlVKe_CVyL53Ym-85" target="sGm70nYlVKe_CVyL53Ym-56" edge="1">
          <mxGeometry width="50" height="50" relative="1" as="geometry">
            <mxPoint x="704.5" y="316.3217910447762" as="sourcePoint" />
            <mxPoint x="653.147994907702" y="292.2399999999999" as="targetPoint" />
            <Array as="points">
              <mxPoint x="200" y="-413" />
            </Array>
          </mxGeometry>
        </mxCell>
        <mxCell id="sGm70nYlVKe_CVyL53Ym-94" value="TPSharing" style="rounded=1;whiteSpace=wrap;html=1;fillColor=#e1d5e7;strokeColor=#9673a6;fontSize=15;fontStyle=2;shadow=1;fontFamily=Helvetica;" parent="sGm70nYlVKe_CVyL53Ym-1" vertex="1">
          <mxGeometry x="408.71000000000004" y="23.5" width="83" height="40" as="geometry" />
        </mxCell>
        <mxCell id="sGm70nYlVKe_CVyL53Ym-95" value="" style="endArrow=block;html=1;endFill=0;fontSize=15;fontStyle=2;curved=1;shadow=1;fontFamily=Helvetica;" parent="sGm70nYlVKe_CVyL53Ym-1" source="sGm70nYlVKe_CVyL53Ym-94" target="sGm70nYlVKe_CVyL53Ym-85" edge="1">
          <mxGeometry width="50" height="50" relative="1" as="geometry">
            <mxPoint x="956.5" y="449" as="sourcePoint" />
            <mxPoint x="956.5" y="349" as="targetPoint" />
            <Array as="points">
              <mxPoint x="470" y="-150" />
            </Array>
          </mxGeometry>
        </mxCell>
        <mxCell id="sGm70nYlVKe_CVyL53Ym-96" value="FPCollection" style="rounded=1;whiteSpace=wrap;html=1;fillColor=#e1d5e7;strokeColor=#9673a6;fontSize=15;fontStyle=2;shadow=1;fontFamily=Helvetica;" parent="sGm70nYlVKe_CVyL53Ym-1" vertex="1">
          <mxGeometry x="253.95" y="-137" width="96.13" height="40" as="geometry" />
        </mxCell>
        <mxCell id="sGm70nYlVKe_CVyL53Ym-97" value="DataUse" style="rounded=1;whiteSpace=wrap;html=1;fillColor=#e1d5e7;strokeColor=#9673a6;fontSize=15;fontStyle=2;shadow=1;fontFamily=Helvetica;" parent="sGm70nYlVKe_CVyL53Ym-1" vertex="1">
          <mxGeometry x="29.999999999999993" y="-240.75" width="75" height="40" as="geometry" />
        </mxCell>
        <mxCell id="sGm70nYlVKe_CVyL53Ym-98" value="" style="endArrow=block;html=1;endFill=0;fontSize=15;fontStyle=2;curved=1;shadow=1;fontFamily=Helvetica;" parent="sGm70nYlVKe_CVyL53Ym-1" source="sGm70nYlVKe_CVyL53Ym-96" target="sGm70nYlVKe_CVyL53Ym-85" edge="1">
          <mxGeometry width="50" height="50" relative="1" as="geometry">
            <mxPoint x="620" y="439.5960264900664" as="sourcePoint" />
            <mxPoint x="766.5" y="478.4039735099336" as="targetPoint" />
            <Array as="points">
              <mxPoint x="300" y="-200" />
            </Array>
          </mxGeometry>
        </mxCell>
        <mxCell id="sGm70nYlVKe_CVyL53Ym-99" value="" style="endArrow=block;html=1;endFill=0;fontSize=15;fontStyle=2;curved=1;shadow=1;fontFamily=Helvetica;" parent="sGm70nYlVKe_CVyL53Ym-1" source="sGm70nYlVKe_CVyL53Ym-163" target="sGm70nYlVKe_CVyL53Ym-85" edge="1">
          <mxGeometry width="50" height="50" relative="1" as="geometry">
            <mxPoint x="635.6666666666665" y="389" as="sourcePoint" />
            <mxPoint x="772.333333333333" y="469" as="targetPoint" />
            <Array as="points">
              <mxPoint x="540" y="-150" />
            </Array>
          </mxGeometry>
        </mxCell>
        <mxCell id="sGm70nYlVKe_CVyL53Ym-100" value="" style="endArrow=block;html=1;endFill=0;fontSize=15;fontStyle=2;curved=1;shadow=1;fontFamily=Helvetica;" parent="sGm70nYlVKe_CVyL53Ym-1" source="sGm70nYlVKe_CVyL53Ym-97" target="sGm70nYlVKe_CVyL53Ym-85" edge="1">
          <mxGeometry width="50" height="50" relative="1" as="geometry">
            <mxPoint x="686.0588235294117" y="339" as="sourcePoint" />
            <mxPoint x="790.4411764705883" y="469" as="targetPoint" />
            <Array as="points">
              <mxPoint x="160" y="-230" />
            </Array>
          </mxGeometry>
        </mxCell>
        <mxCell id="sGm70nYlVKe_CVyL53Ym-101" value="DataRetentionMechanism" style="rounded=1;whiteSpace=wrap;html=1;fillColor=#fff2cc;strokeColor=#d6b656;fontSize=15;fontStyle=2;shadow=1;fontFamily=Helvetica;" parent="sGm70nYlVKe_CVyL53Ym-1" vertex="1">
          <mxGeometry x="727.0299999999999" y="-77.25" width="183" height="40" as="geometry" />
        </mxCell>
        <mxCell id="sGm70nYlVKe_CVyL53Ym-102" value="" style="endArrow=block;html=1;endFill=0;fontSize=15;fontStyle=2;curved=1;shadow=1;fontFamily=Helvetica;" parent="sGm70nYlVKe_CVyL53Ym-1" source="sGm70nYlVKe_CVyL53Ym-101" target="sGm70nYlVKe_CVyL53Ym-3" edge="1">
          <mxGeometry width="50" height="50" relative="1" as="geometry">
            <mxPoint x="1141.4057647058821" y="-1273.96" as="sourcePoint" />
            <mxPoint x="1057.5342352941175" y="-1446.46" as="targetPoint" />
            <Array as="points">
              <mxPoint x="910" y="-130" />
            </Array>
          </mxGeometry>
        </mxCell>
        <mxCell id="sGm70nYlVKe_CVyL53Ym-103" value="DataRetentionTime" style="rounded=1;whiteSpace=wrap;html=1;fillColor=#ffe6cc;strokeColor=#d79b00;fontSize=15;fontStyle=2;shadow=1;fontFamily=Helvetica;" parent="sGm70nYlVKe_CVyL53Ym-1" vertex="1">
          <mxGeometry x="300.52000000000004" y="805.5" width="145" height="40" as="geometry" />
        </mxCell>
        <mxCell id="sGm70nYlVKe_CVyL53Ym-104" value="" style="endArrow=block;html=1;endFill=0;fontSize=15;fontStyle=2;shadow=1;fontFamily=Helvetica;" parent="sGm70nYlVKe_CVyL53Ym-1" source="sGm70nYlVKe_CVyL53Ym-103" target="sGm70nYlVKe_CVyL53Ym-22" edge="1">
          <mxGeometry width="50" height="50" relative="1" as="geometry">
            <mxPoint x="1362.8928571428573" y="1394.5" as="sourcePoint" />
            <mxPoint x="1328.62" y="1435.5" as="targetPoint" />
          </mxGeometry>
        </mxCell>
        <mxCell id="sGm70nYlVKe_CVyL53Ym-105" value="" style="endArrow=block;html=1;endFill=0;fontSize=15;fontStyle=2;curved=1;shadow=1;fontFamily=Helvetica;" parent="sGm70nYlVKe_CVyL53Ym-1" source="sGm70nYlVKe_CVyL53Ym-13" target="sGm70nYlVKe_CVyL53Ym-175" edge="1">
          <mxGeometry width="50" height="50" relative="1" as="geometry">
            <mxPoint x="956.5000000000005" y="449" as="sourcePoint" />
            <mxPoint x="956.4999999999995" y="349" as="targetPoint" />
            <Array as="points">
              <mxPoint x="760" y="210" />
              <mxPoint x="460" y="-320" />
            </Array>
          </mxGeometry>
        </mxCell>
        <mxCell id="sGm70nYlVKe_CVyL53Ym-106" value="PolicyScopeChange" style="rounded=1;whiteSpace=wrap;html=1;fontSize=15;fontStyle=2;fillColor=#f0a30a;strokeColor=#BD7000;fontColor=#000000;shadow=1;fontFamily=Helvetica;strokeWidth=5;" parent="sGm70nYlVKe_CVyL53Ym-1" vertex="1">
          <mxGeometry x="-95.22" y="855.5" width="150" height="40" as="geometry" />
        </mxCell>
        <mxCell id="sGm70nYlVKe_CVyL53Ym-107" value="" style="endArrow=classic;html=1;dashed=1;fontSize=15;fontStyle=2;curved=1;fillColor=#f0a30a;strokeColor=#BD7000;shadow=1;strokeWidth=2;fontFamily=Helvetica;" parent="sGm70nYlVKe_CVyL53Ym-1" source="sGm70nYlVKe_CVyL53Ym-5" target="sGm70nYlVKe_CVyL53Ym-106" edge="1">
          <mxGeometry width="50" height="50" relative="1" as="geometry">
            <mxPoint x="1269.7718018018015" y="541.38" as="sourcePoint" />
            <mxPoint x="1373.1681981981985" y="581.3000000000003" as="targetPoint" />
            <Array as="points">
              <mxPoint x="550" y="690" />
            </Array>
          </mxGeometry>
        </mxCell>
        <mxCell id="sGm70nYlVKe_CVyL53Ym-108" value="" style="endArrow=classic;html=1;dashed=1;fontSize=15;fontStyle=2;curved=1;fillColor=#ffe6cc;strokeColor=#d79b00;shadow=1;strokeWidth=2;fontFamily=Helvetica;" parent="sGm70nYlVKe_CVyL53Ym-1" source="sGm70nYlVKe_CVyL53Ym-163" target="sGm70nYlVKe_CVyL53Ym-103" edge="1">
          <mxGeometry width="50" height="50" relative="1" as="geometry">
            <mxPoint x="609" y="610.0696671105193" as="sourcePoint" />
            <mxPoint x="450.9000116144016" y="561.1199999999999" as="targetPoint" />
            <Array as="points">
              <mxPoint x="650" y="240" />
              <mxPoint x="570" y="620" />
            </Array>
          </mxGeometry>
        </mxCell>
        <mxCell id="sGm70nYlVKe_CVyL53Ym-109" value="Purpose" style="rounded=1;whiteSpace=wrap;html=1;fillColor=#6a00ff;strokeColor=#3700CC;fontSize=15;fontStyle=3;fontColor=#ffffff;shadow=1;fontFamily=Helvetica;strokeWidth=5;" parent="sGm70nYlVKe_CVyL53Ym-1" vertex="1">
          <mxGeometry x="-216.4900000000002" y="-507.37" width="76" height="40" as="geometry" />
        </mxCell>
        <mxCell id="sGm70nYlVKe_CVyL53Ym-110" value="" style="endArrow=block;html=1;endFill=0;fontSize=15;fontStyle=2;shadow=1;fontFamily=Helvetica;" parent="sGm70nYlVKe_CVyL53Ym-1" source="sGm70nYlVKe_CVyL53Ym-56" target="sGm70nYlVKe_CVyL53Ym-109" edge="1">
          <mxGeometry width="50" height="50" relative="1" as="geometry">
            <mxPoint x="308.2382608695651" y="-980.87" as="sourcePoint" />
            <mxPoint x="263.401739130435" y="-951.87" as="targetPoint" />
          </mxGeometry>
        </mxCell>
        <mxCell id="sGm70nYlVKe_CVyL53Ym-111" value="Consequence" style="rounded=1;whiteSpace=wrap;html=1;fillColor=#1ba1e2;strokeColor=#006EAF;fontSize=15;fontStyle=3;fontColor=#ffffff;shadow=1;strokeWidth=5;fontFamily=Helvetica;" parent="sGm70nYlVKe_CVyL53Ym-1" vertex="1">
          <mxGeometry x="671.3500000000001" y="635.5" width="115.69" height="40" as="geometry" />
        </mxCell>
        <mxCell id="sGm70nYlVKe_CVyL53Ym-112" value="" style="endArrow=block;html=1;endFill=0;fontSize=15;fontStyle=2;shadow=1;curved=1;fontFamily=Helvetica;" parent="sGm70nYlVKe_CVyL53Ym-1" source="sGm70nYlVKe_CVyL53Ym-16" target="sGm70nYlVKe_CVyL53Ym-111" edge="1">
          <mxGeometry width="50" height="50" relative="1" as="geometry">
            <mxPoint x="1601.458260869565" y="1078.72" as="sourcePoint" />
            <mxPoint x="1556.621739130435" y="1107.72" as="targetPoint" />
          </mxGeometry>
        </mxCell>
        <mxCell id="sGm70nYlVKe_CVyL53Ym-113" value="Basis" style="rounded=1;whiteSpace=wrap;html=1;fillColor=#fa6800;strokeColor=#C73500;fontSize=15;fontStyle=3;fontColor=#000000;shadow=1;fontFamily=Helvetica;strokeWidth=5;" parent="sGm70nYlVKe_CVyL53Ym-1" vertex="1">
          <mxGeometry x="-288.75" y="-410.5" width="54" height="40" as="geometry" />
        </mxCell>
        <mxCell id="sGm70nYlVKe_CVyL53Ym-114" value="" style="endArrow=block;html=1;endFill=0;fontSize=15;fontStyle=2;shadow=1;fontFamily=Helvetica;" parent="sGm70nYlVKe_CVyL53Ym-1" source="sGm70nYlVKe_CVyL53Ym-53" target="sGm70nYlVKe_CVyL53Ym-113" edge="1">
          <mxGeometry width="50" height="50" relative="1" as="geometry">
            <mxPoint x="1123.45" y="-975.7600000000001" as="sourcePoint" />
            <mxPoint x="1083.64" y="-975.7600000000001" as="targetPoint" />
          </mxGeometry>
        </mxCell>
        <mxCell id="sGm70nYlVKe_CVyL53Ym-115" value="ProvidedDataControl" style="rounded=1;whiteSpace=wrap;html=1;fillColor=#e1d5e7;strokeColor=#9673a6;fontSize=15;fontStyle=2;shadow=1;fontFamily=Helvetica;" parent="sGm70nYlVKe_CVyL53Ym-1" vertex="1">
          <mxGeometry x="295.33000000000004" y="580" width="150.19" height="40" as="geometry" />
        </mxCell>
        <mxCell id="sGm70nYlVKe_CVyL53Ym-116" value="OptInOptOutControl" style="rounded=1;whiteSpace=wrap;html=1;fillColor=#e1d5e7;strokeColor=#9673a6;fontSize=15;fontStyle=2;shadow=1;fontFamily=Helvetica;" parent="sGm70nYlVKe_CVyL53Ym-1" vertex="1">
          <mxGeometry x="224.04" y="660" width="107.29" height="40" as="geometry" />
        </mxCell>
        <mxCell id="sGm70nYlVKe_CVyL53Ym-118" value="" style="endArrow=block;html=1;endFill=0;fontSize=15;fontStyle=2;curved=1;shadow=1;fontFamily=Helvetica;" parent="sGm70nYlVKe_CVyL53Ym-1" source="sGm70nYlVKe_CVyL53Ym-115" target="sGm70nYlVKe_CVyL53Ym-6" edge="1">
          <mxGeometry width="50" height="50" relative="1" as="geometry">
            <mxPoint x="785.5588235294117" y="613.01" as="sourcePoint" />
            <mxPoint x="753.4411764705883" y="585.01" as="targetPoint" />
            <Array as="points">
              <mxPoint x="670" y="540" />
            </Array>
          </mxGeometry>
        </mxCell>
        <mxCell id="sGm70nYlVKe_CVyL53Ym-119" value="" style="endArrow=block;html=1;endFill=0;fontSize=15;fontStyle=2;curved=1;shadow=1;fontFamily=Helvetica;" parent="sGm70nYlVKe_CVyL53Ym-1" source="sGm70nYlVKe_CVyL53Ym-116" target="sGm70nYlVKe_CVyL53Ym-6" edge="1">
          <mxGeometry width="50" height="50" relative="1" as="geometry">
            <mxPoint x="962.8569414483823" y="582.8899999999999" as="sourcePoint" />
            <mxPoint x="920.738058551618" y="545.01" as="targetPoint" />
            <Array as="points">
              <mxPoint x="670" y="610" />
            </Array>
          </mxGeometry>
        </mxCell>
        <mxCell id="sGm70nYlVKe_CVyL53Ym-120" value="&lt;div style=&quot;font-size: 15px;&quot;&gt;PersonalData&lt;/div&gt;" style="rounded=1;whiteSpace=wrap;html=1;fillColor=#f5f5f5;fontColor=#333333;strokeColor=#666666;fontSize=15;fontStyle=2;shadow=1;fontFamily=Helvetica;" parent="sGm70nYlVKe_CVyL53Ym-1" vertex="1">
          <mxGeometry x="-384.75" y="900" width="150" height="40" as="geometry" />
        </mxCell>
        <mxCell id="sGm70nYlVKe_CVyL53Ym-121" value="" style="endArrow=block;html=1;endFill=0;fontSize=15;fontStyle=2;shadow=1;curved=1;fontFamily=Helvetica;" parent="sGm70nYlVKe_CVyL53Ym-1" source="sGm70nYlVKe_CVyL53Ym-120" target="sGm70nYlVKe_CVyL53Ym-36" edge="1">
          <mxGeometry width="50" height="50" relative="1" as="geometry">
            <mxPoint x="90.392511569205" y="1729.81" as="sourcePoint" />
            <mxPoint x="45.607488430795" y="1761.12" as="targetPoint" />
            <Array as="points">
              <mxPoint x="-200" y="920" />
            </Array>
          </mxGeometry>
        </mxCell>
        <mxCell id="sGm70nYlVKe_CVyL53Ym-122" value="OptControl" style="rounded=1;whiteSpace=wrap;html=1;fillColor=#e1d5e7;strokeColor=#9673a6;fontSize=15;fontStyle=2;shadow=1;fontFamily=Helvetica;" parent="sGm70nYlVKe_CVyL53Ym-1" vertex="1">
          <mxGeometry x="124.04000000000002" y="735.5" width="90" height="40" as="geometry" />
        </mxCell>
        <mxCell id="sGm70nYlVKe_CVyL53Ym-123" value="" style="endArrow=block;html=1;endFill=0;fontSize=15;fontStyle=2;curved=1;shadow=1;fontFamily=Helvetica;" parent="sGm70nYlVKe_CVyL53Ym-1" source="sGm70nYlVKe_CVyL53Ym-122" target="sGm70nYlVKe_CVyL53Ym-6" edge="1">
          <mxGeometry width="50" height="50" relative="1" as="geometry">
            <mxPoint x="913" y="626.01" as="sourcePoint" />
            <mxPoint x="885.59900990099" y="545.01" as="targetPoint" />
            <Array as="points">
              <mxPoint x="690" y="690" />
            </Array>
          </mxGeometry>
        </mxCell>
        <mxCell id="sGm70nYlVKe_CVyL53Ym-124" value="FirstParty" style="rounded=1;whiteSpace=wrap;html=1;fillColor=#dae8fc;strokeColor=#6c8ebf;fontSize=15;fontStyle=2;shadow=1;fontFamily=Helvetica;" parent="sGm70nYlVKe_CVyL53Ym-1" vertex="1">
          <mxGeometry x="-358" y="-137" width="78" height="40" as="geometry" />
        </mxCell>
        <mxCell id="sGm70nYlVKe_CVyL53Ym-125" value="&lt;div&gt;UserChoice&lt;/div&gt;&lt;div&gt;Consequence&lt;/div&gt;" style="rounded=1;whiteSpace=wrap;html=1;fillColor=#1ba1e2;strokeColor=#006EAF;fontSize=15;fontStyle=2;fontColor=#ffffff;shadow=1;fontFamily=Helvetica;" parent="sGm70nYlVKe_CVyL53Ym-1" vertex="1">
          <mxGeometry x="882.2300000000001" y="635.5" width="107.5" height="40" as="geometry" />
        </mxCell>
        <mxCell id="sGm70nYlVKe_CVyL53Ym-126" value="" style="endArrow=block;html=1;endFill=0;fontSize=15;fontStyle=2;shadow=1;fontFamily=Helvetica;" parent="sGm70nYlVKe_CVyL53Ym-1" source="sGm70nYlVKe_CVyL53Ym-125" target="sGm70nYlVKe_CVyL53Ym-111" edge="1">
          <mxGeometry width="50" height="50" relative="1" as="geometry">
            <mxPoint x="1271.3513427561838" y="1195.35" as="sourcePoint" />
            <mxPoint x="1272.0686572438167" y="1093.85" as="targetPoint" />
          </mxGeometry>
        </mxCell>
        <mxCell id="sGm70nYlVKe_CVyL53Ym-127" value="" style="endArrow=classic;html=1;dashed=1;fontSize=15;fontStyle=2;shadow=1;fillColor=#1ba1e2;strokeColor=#006EAF;strokeWidth=2;fontFamily=Helvetica;curved=1;" parent="sGm70nYlVKe_CVyL53Ym-1" source="sGm70nYlVKe_CVyL53Ym-6" target="sGm70nYlVKe_CVyL53Ym-125" edge="1">
          <mxGeometry width="50" height="50" relative="1" as="geometry">
            <mxPoint x="1176.5" y="356.7902149740553" as="sourcePoint" />
            <mxPoint x="1387" y="381.7568569310606" as="targetPoint" />
            <Array as="points">
              <mxPoint x="931" y="432" />
            </Array>
          </mxGeometry>
        </mxCell>
        <mxCell id="sGm70nYlVKe_CVyL53Ym-128" value="ServiceFullRestriction" style="rounded=1;whiteSpace=wrap;html=1;fillColor=#1ba1e2;strokeColor=#006EAF;fontSize=15;fontStyle=2;fontColor=#ffffff;shadow=1;fontFamily=Helvetica;" parent="sGm70nYlVKe_CVyL53Ym-1" vertex="1">
          <mxGeometry x="1064.7700000000002" y="800" width="163.5" height="40" as="geometry" />
        </mxCell>
        <mxCell id="sGm70nYlVKe_CVyL53Ym-129" value="ServicePartialRestriction" style="rounded=1;whiteSpace=wrap;html=1;fillColor=#1ba1e2;strokeColor=#006EAF;fontSize=15;fontStyle=2;fontColor=#ffffff;shadow=1;fontFamily=Helvetica;" parent="sGm70nYlVKe_CVyL53Ym-1" vertex="1">
          <mxGeometry x="1067.8400000000001" y="690" width="182" height="40" as="geometry" />
        </mxCell>
        <mxCell id="sGm70nYlVKe_CVyL53Ym-130" value="" style="endArrow=block;html=1;endFill=0;fontSize=15;fontStyle=2;shadow=1;fontFamily=Helvetica;" parent="sGm70nYlVKe_CVyL53Ym-1" source="sGm70nYlVKe_CVyL53Ym-272" target="sGm70nYlVKe_CVyL53Ym-125" edge="1">
          <mxGeometry width="50" height="50" relative="1" as="geometry">
            <mxPoint x="2065.96" y="1269.40089093702" as="sourcePoint" />
            <mxPoint x="2000.46" y="1250.3525652841786" as="targetPoint" />
          </mxGeometry>
        </mxCell>
        <mxCell id="sGm70nYlVKe_CVyL53Ym-131" value="" style="endArrow=classic;html=1;dashed=1;fontSize=15;fontStyle=2;curved=1;fillColor=#008a00;strokeColor=#005700;shadow=1;strokeWidth=2;fontFamily=Helvetica;" parent="sGm70nYlVKe_CVyL53Ym-1" source="sGm70nYlVKe_CVyL53Ym-5" target="sGm70nYlVKe_CVyL53Ym-133" edge="1">
          <mxGeometry width="50" height="50" relative="1" as="geometry">
            <mxPoint x="1299.5517498138497" y="444.05999999999995" as="sourcePoint" />
            <mxPoint x="1404.2582501861502" y="511.5" as="targetPoint" />
            <Array as="points" />
          </mxGeometry>
        </mxCell>
        <mxCell id="sGm70nYlVKe_CVyL53Ym-132" value="" style="endArrow=classic;html=1;dashed=1;fontSize=15;fontStyle=2;curved=1;fillColor=#1ba1e2;strokeColor=#006EAF;shadow=1;strokeWidth=2;fontFamily=Helvetica;" parent="sGm70nYlVKe_CVyL53Ym-1" source="sGm70nYlVKe_CVyL53Ym-5" target="sGm70nYlVKe_CVyL53Ym-135" edge="1">
          <mxGeometry width="50" height="50" relative="1" as="geometry">
            <mxPoint x="1268.5" y="444.05999999999995" as="sourcePoint" />
            <mxPoint x="1268.5" y="487.94000000000005" as="targetPoint" />
            <Array as="points">
              <mxPoint x="648" y="568" />
            </Array>
          </mxGeometry>
        </mxCell>
        <mxCell id="sGm70nYlVKe_CVyL53Ym-133" value="&lt;div&gt;PolicyChange&lt;/div&gt;&lt;div&gt;Cause&lt;/div&gt;" style="rounded=1;whiteSpace=wrap;html=1;fillColor=#008a00;strokeColor=#005700;fontSize=15;fontStyle=2;fontColor=#ffffff;shadow=1;fontFamily=Helvetica;" parent="sGm70nYlVKe_CVyL53Ym-1" vertex="1">
          <mxGeometry x="987.9" y="580" width="107.75" height="40" as="geometry" />
        </mxCell>
        <mxCell id="sGm70nYlVKe_CVyL53Ym-134" value="" style="endArrow=block;html=1;endFill=0;fontSize=15;fontStyle=2;curved=1;shadow=1;fontFamily=Helvetica;" parent="sGm70nYlVKe_CVyL53Ym-1" source="sGm70nYlVKe_CVyL53Ym-133" target="sGm70nYlVKe_CVyL53Ym-18" edge="1">
          <mxGeometry width="50" height="50" relative="1" as="geometry">
            <mxPoint x="2140.9" y="746.25" as="sourcePoint" />
            <mxPoint x="1440.13" y="426.35131941709324" as="targetPoint" />
          </mxGeometry>
        </mxCell>
        <mxCell id="sGm70nYlVKe_CVyL53Ym-135" value="&lt;div&gt;PolicyChange&lt;/div&gt;&lt;div&gt;Consequence&lt;/div&gt;" style="rounded=1;whiteSpace=wrap;html=1;fillColor=#1ba1e2;strokeColor=#006EAF;fontSize=15;fontStyle=2;fontColor=#ffffff;shadow=1;fontFamily=Helvetica;" parent="sGm70nYlVKe_CVyL53Ym-1" vertex="1">
          <mxGeometry x="604.9200000000002" y="740" width="118.75" height="40" as="geometry" />
        </mxCell>
        <mxCell id="sGm70nYlVKe_CVyL53Ym-136" value="" style="endArrow=block;html=1;endFill=0;fontSize=15;fontStyle=2;shadow=1;curved=1;fontFamily=Helvetica;" parent="sGm70nYlVKe_CVyL53Ym-1" source="sGm70nYlVKe_CVyL53Ym-135" target="sGm70nYlVKe_CVyL53Ym-111" edge="1">
          <mxGeometry width="50" height="50" relative="1" as="geometry">
            <mxPoint x="1620.4718232044202" y="1577.85" as="sourcePoint" />
            <mxPoint x="1562.5781767955805" y="1527.35" as="targetPoint" />
          </mxGeometry>
        </mxCell>
        <mxCell id="sGm70nYlVKe_CVyL53Ym-137" value="ForceMajeur" style="rounded=1;whiteSpace=wrap;html=1;fillColor=#008a00;strokeColor=#005700;fontSize=15;fontStyle=2;fontColor=#ffffff;shadow=1;fontFamily=Helvetica;" parent="sGm70nYlVKe_CVyL53Ym-1" vertex="1">
          <mxGeometry x="932.7900000000001" y="306.5" width="95" height="40" as="geometry" />
        </mxCell>
        <mxCell id="sGm70nYlVKe_CVyL53Ym-138" value="NoServiceRestriction" style="rounded=1;whiteSpace=wrap;html=1;fillColor=#1ba1e2;strokeColor=#006EAF;fontSize=15;fontStyle=2;fontColor=#ffffff;shadow=1;fontFamily=Helvetica;" parent="sGm70nYlVKe_CVyL53Ym-1" vertex="1">
          <mxGeometry x="1116.0300000000002" y="750" width="155.5" height="40" as="geometry" />
        </mxCell>
        <mxCell id="sGm70nYlVKe_CVyL53Ym-139" value="" style="endArrow=classic;html=1;dashed=1;fontSize=15;fontStyle=2;curved=1;fillColor=#ffe6cc;strokeColor=#d79b00;shadow=1;strokeWidth=2;fontFamily=Helvetica;" parent="sGm70nYlVKe_CVyL53Ym-1" source="sGm70nYlVKe_CVyL53Ym-5" target="sGm70nYlVKe_CVyL53Ym-140" edge="1">
          <mxGeometry width="50" height="50" relative="1" as="geometry">
            <mxPoint x="1692.8303886925796" y="435.25" as="sourcePoint" />
            <mxPoint x="358" y="890" as="targetPoint" />
            <Array as="points">
              <mxPoint x="560" y="650" />
            </Array>
          </mxGeometry>
        </mxCell>
        <mxCell id="sGm70nYlVKe_CVyL53Ym-140" value="PolicyAcceptanceTime" style="rounded=1;whiteSpace=wrap;html=1;fillColor=#ffe6cc;strokeColor=#d79b00;fontSize=15;fontStyle=2;shadow=1;fontFamily=Helvetica;" parent="sGm70nYlVKe_CVyL53Ym-1" vertex="1">
          <mxGeometry x="93.95000000000003" y="850" width="160" height="40" as="geometry" />
        </mxCell>
        <mxCell id="sGm70nYlVKe_CVyL53Ym-141" value="" style="endArrow=block;html=1;endFill=0;fontSize=15;fontStyle=2;shadow=1;fontFamily=Helvetica;" parent="sGm70nYlVKe_CVyL53Ym-1" source="sGm70nYlVKe_CVyL53Ym-140" target="sGm70nYlVKe_CVyL53Ym-22" edge="1">
          <mxGeometry width="50" height="50" relative="1" as="geometry">
            <mxPoint x="1299.62" y="1453.5" as="sourcePoint" />
            <mxPoint x="1197.62" y="1348.5" as="targetPoint" />
          </mxGeometry>
        </mxCell>
        <mxCell id="sGm70nYlVKe_CVyL53Ym-142" value="PrivacyRelated" style="rounded=1;whiteSpace=wrap;html=1;fillColor=#008a00;strokeColor=#005700;fontSize=15;fontStyle=2;fontColor=#ffffff;shadow=1;fontFamily=Helvetica;" parent="sGm70nYlVKe_CVyL53Ym-1" vertex="1">
          <mxGeometry x="1159.7" y="571" width="108.5" height="40" as="geometry" />
        </mxCell>
        <mxCell id="sGm70nYlVKe_CVyL53Ym-143" value="NonPrivacyRelated" style="rounded=1;whiteSpace=wrap;html=1;fillColor=#008a00;strokeColor=#005700;fontSize=15;fontStyle=2;fontColor=#ffffff;shadow=1;fontFamily=Helvetica;" parent="sGm70nYlVKe_CVyL53Ym-1" vertex="1">
          <mxGeometry x="1145.64" y="521" width="143.5" height="40" as="geometry" />
        </mxCell>
        <mxCell id="sGm70nYlVKe_CVyL53Ym-144" value="MergeAcquisition" style="rounded=1;whiteSpace=wrap;html=1;fillColor=#008a00;strokeColor=#005700;fontSize=15;fontStyle=2;fontColor=#ffffff;shadow=1;fontFamily=Helvetica;" parent="sGm70nYlVKe_CVyL53Ym-1" vertex="1">
          <mxGeometry x="1150.64" y="471" width="133.5" height="40" as="geometry" />
        </mxCell>
        <mxCell id="sGm70nYlVKe_CVyL53Ym-145" value="" style="endArrow=block;html=1;endFill=0;fontSize=15;fontStyle=2;shadow=1;fontFamily=Helvetica;" parent="sGm70nYlVKe_CVyL53Ym-1" source="sGm70nYlVKe_CVyL53Ym-270" target="sGm70nYlVKe_CVyL53Ym-133" edge="1">
          <mxGeometry width="50" height="50" relative="1" as="geometry">
            <mxPoint x="2053.9" y="764.25" as="sourcePoint" />
            <mxPoint x="1975.6300000000006" y="764.25" as="targetPoint" />
          </mxGeometry>
        </mxCell>
        <mxCell id="sGm70nYlVKe_CVyL53Ym-146" value="Data" style="rounded=1;whiteSpace=wrap;html=1;fillColor=#f5f5f5;fontColor=#333333;strokeColor=#FF0080;fontSize=15;fontStyle=3;shadow=1;strokeWidth=5;fontFamily=Helvetica;" parent="sGm70nYlVKe_CVyL53Ym-1" vertex="1">
          <mxGeometry x="-264.12" y="750" width="62" height="40" as="geometry" />
        </mxCell>
        <mxCell id="sGm70nYlVKe_CVyL53Ym-147" value="" style="endArrow=classic;html=1;dashed=1;fontSize=15;fontStyle=2;fillColor=#dae8fc;strokeColor=#6c8ebf;shadow=1;strokeWidth=5;curved=1;fontFamily=Helvetica;" parent="sGm70nYlVKe_CVyL53Ym-1" source="sGm70nYlVKe_CVyL53Ym-31" target="sGm70nYlVKe_CVyL53Ym-146" edge="1">
          <mxGeometry width="50" height="50" relative="1" as="geometry">
            <mxPoint x="-373" y="-139" as="sourcePoint" />
            <mxPoint x="-436" y="-92" as="targetPoint" />
            <Array as="points" />
          </mxGeometry>
        </mxCell>
        <mxCell id="sGm70nYlVKe_CVyL53Ym-150" value="" style="endArrow=classic;html=1;dashed=1;fontSize=15;fontStyle=2;fillColor=#e1d5e7;strokeColor=#9673a6;shadow=1;strokeWidth=2;fontFamily=Helvetica;" parent="sGm70nYlVKe_CVyL53Ym-1" source="sGm70nYlVKe_CVyL53Ym-31" target="sGm70nYlVKe_CVyL53Ym-115" edge="1">
          <mxGeometry width="50" height="50" relative="1" as="geometry">
            <mxPoint x="-85" y="-213" as="sourcePoint" />
            <mxPoint x="-148" y="-166" as="targetPoint" />
          </mxGeometry>
        </mxCell>
        <mxCell id="sGm70nYlVKe_CVyL53Ym-152" value="" style="endArrow=classic;html=1;dashed=1;fontSize=15;fontStyle=2;fillColor=#e1d5e7;strokeColor=#9673a6;shadow=1;strokeWidth=2;fontFamily=Helvetica;" parent="sGm70nYlVKe_CVyL53Ym-1" source="sGm70nYlVKe_CVyL53Ym-32" target="sGm70nYlVKe_CVyL53Ym-13" edge="1">
          <mxGeometry width="50" height="50" relative="1" as="geometry">
            <mxPoint x="-65" y="-193" as="sourcePoint" />
            <mxPoint x="-128" y="-146" as="targetPoint" />
          </mxGeometry>
        </mxCell>
        <mxCell id="sGm70nYlVKe_CVyL53Ym-153" value="" style="endArrow=classic;html=1;dashed=1;fontSize=15;fontStyle=2;fillColor=#e1d5e7;strokeColor=#9673a6;shadow=1;strokeWidth=2;fontFamily=Helvetica;" parent="sGm70nYlVKe_CVyL53Ym-1" source="sGm70nYlVKe_CVyL53Ym-124" target="sGm70nYlVKe_CVyL53Ym-163" edge="1">
          <mxGeometry width="50" height="50" relative="1" as="geometry">
            <mxPoint x="-55" y="-183" as="sourcePoint" />
            <mxPoint x="-118" y="-136" as="targetPoint" />
          </mxGeometry>
        </mxCell>
        <mxCell id="sGm70nYlVKe_CVyL53Ym-154" value="" style="endArrow=classic;html=1;dashed=1;fontSize=15;fontStyle=2;fillColor=#e1d5e7;strokeColor=#9673a6;shadow=1;strokeWidth=2;fontFamily=Helvetica;" parent="sGm70nYlVKe_CVyL53Ym-1" source="sGm70nYlVKe_CVyL53Ym-124" target="sGm70nYlVKe_CVyL53Ym-96" edge="1">
          <mxGeometry width="50" height="50" relative="1" as="geometry">
            <mxPoint x="-45" y="-173" as="sourcePoint" />
            <mxPoint x="-108" y="-126" as="targetPoint" />
          </mxGeometry>
        </mxCell>
        <mxCell id="sGm70nYlVKe_CVyL53Ym-156" value="" style="endArrow=classic;html=1;dashed=1;fontSize=15;fontStyle=2;fillColor=#e1d5e7;strokeColor=#9673a6;shadow=1;strokeWidth=2;fontFamily=Helvetica;" parent="sGm70nYlVKe_CVyL53Ym-1" source="sGm70nYlVKe_CVyL53Ym-124" target="sGm70nYlVKe_CVyL53Ym-97" edge="1">
          <mxGeometry width="50" height="50" relative="1" as="geometry">
            <mxPoint x="-25" y="-153" as="sourcePoint" />
            <mxPoint x="-88" y="-106" as="targetPoint" />
          </mxGeometry>
        </mxCell>
        <mxCell id="sGm70nYlVKe_CVyL53Ym-158" value="" style="endArrow=classic;html=1;dashed=1;fontSize=15;fontStyle=2;fillColor=#e1d5e7;strokeColor=#9673a6;shadow=1;strokeWidth=2;fontFamily=Helvetica;" parent="sGm70nYlVKe_CVyL53Ym-1" source="sGm70nYlVKe_CVyL53Ym-124" target="sGm70nYlVKe_CVyL53Ym-5" edge="1">
          <mxGeometry width="50" height="50" relative="1" as="geometry">
            <mxPoint x="-5" y="-133" as="sourcePoint" />
            <mxPoint x="-68" y="-86" as="targetPoint" />
          </mxGeometry>
        </mxCell>
        <mxCell id="sGm70nYlVKe_CVyL53Ym-159" value="" style="endArrow=classic;html=1;dashed=1;fontSize=15;fontStyle=2;fillColor=#e1d5e7;strokeColor=#9673a6;shadow=1;strokeWidth=2;fontFamily=Helvetica;" parent="sGm70nYlVKe_CVyL53Ym-1" source="sGm70nYlVKe_CVyL53Ym-31" target="sGm70nYlVKe_CVyL53Ym-116" edge="1">
          <mxGeometry width="50" height="50" relative="1" as="geometry">
            <mxPoint x="-75" y="-203" as="sourcePoint" />
            <mxPoint x="-138" y="-156" as="targetPoint" />
          </mxGeometry>
        </mxCell>
        <mxCell id="sGm70nYlVKe_CVyL53Ym-160" value="" style="endArrow=classic;html=1;dashed=1;fontSize=15;fontStyle=2;fillColor=#e1d5e7;strokeColor=#9673a6;shadow=1;strokeWidth=2;fontFamily=Helvetica;" parent="sGm70nYlVKe_CVyL53Ym-1" source="sGm70nYlVKe_CVyL53Ym-31" target="sGm70nYlVKe_CVyL53Ym-122" edge="1">
          <mxGeometry width="50" height="50" relative="1" as="geometry">
            <mxPoint x="-65" y="-193" as="sourcePoint" />
            <mxPoint x="-128" y="-146" as="targetPoint" />
          </mxGeometry>
        </mxCell>
        <mxCell id="sGm70nYlVKe_CVyL53Ym-163" value="DataRetention" style="rounded=1;whiteSpace=wrap;html=1;fillColor=#e1d5e7;strokeColor=#9673a6;fontSize=15;fontStyle=2;shadow=1;fontFamily=Helvetica;" parent="sGm70nYlVKe_CVyL53Ym-1" vertex="1">
          <mxGeometry x="445.15" y="117.5" width="107" height="40" as="geometry" />
        </mxCell>
        <mxCell id="sGm70nYlVKe_CVyL53Ym-164" value="" style="endArrow=classic;html=1;dashed=1;fontSize=15;fontStyle=2;curved=1;fillColor=#d80073;strokeColor=#FF0080;shadow=1;strokeWidth=5;fontFamily=Helvetica;" parent="sGm70nYlVKe_CVyL53Ym-1" source="sGm70nYlVKe_CVyL53Ym-2" target="sGm70nYlVKe_CVyL53Ym-175" edge="1">
          <mxGeometry width="50" height="50" relative="1" as="geometry">
            <mxPoint x="-441" y="-130" as="sourcePoint" />
            <mxPoint x="138" y="-186" as="targetPoint" />
            <Array as="points">
              <mxPoint x="-210" y="-340" />
            </Array>
          </mxGeometry>
        </mxCell>
        <mxCell id="sGm70nYlVKe_CVyL53Ym-165" value="" style="endArrow=classic;html=1;dashed=1;fontSize=15;fontStyle=2;curved=1;fillColor=#d80073;strokeColor=#FF0080;shadow=1;strokeWidth=5;fontFamily=Helvetica;" parent="sGm70nYlVKe_CVyL53Ym-1" source="sGm70nYlVKe_CVyL53Ym-2" target="sGm70nYlVKe_CVyL53Ym-4" edge="1">
          <mxGeometry width="50" height="50" relative="1" as="geometry">
            <mxPoint x="-1505" y="-902" as="sourcePoint" />
            <mxPoint x="924" y="-666" as="targetPoint" />
            <Array as="points">
              <mxPoint x="-540" y="-50" />
            </Array>
          </mxGeometry>
        </mxCell>
        <mxCell id="sGm70nYlVKe_CVyL53Ym-166" value="" style="endArrow=classic;html=1;dashed=1;fontSize=15;fontStyle=2;curved=1;fillColor=#d80073;strokeColor=#FF0080;shadow=1;strokeWidth=5;fontFamily=Helvetica;" parent="sGm70nYlVKe_CVyL53Ym-1" source="sGm70nYlVKe_CVyL53Ym-2" target="sGm70nYlVKe_CVyL53Ym-146" edge="1">
          <mxGeometry width="50" height="50" relative="1" as="geometry">
            <mxPoint x="-1576" y="-891" as="sourcePoint" />
            <mxPoint x="-899" y="-167" as="targetPoint" />
            <Array as="points">
              <mxPoint x="-622" y="-42" />
              <mxPoint x="-580" y="560" />
            </Array>
          </mxGeometry>
        </mxCell>
        <mxCell id="sGm70nYlVKe_CVyL53Ym-167" value="" style="endArrow=block;html=1;fontSize=15;fontStyle=2;curved=1;endFill=0;shadow=1;fontFamily=Helvetica;" parent="sGm70nYlVKe_CVyL53Ym-1" source="sGm70nYlVKe_CVyL53Ym-32" target="sGm70nYlVKe_CVyL53Ym-4" edge="1">
          <mxGeometry width="50" height="50" relative="1" as="geometry">
            <mxPoint x="-899" y="-167" as="sourcePoint" />
            <mxPoint x="-1576" y="-891" as="targetPoint" />
            <Array as="points">
              <mxPoint x="-450" y="290" />
            </Array>
          </mxGeometry>
        </mxCell>
        <mxCell id="sGm70nYlVKe_CVyL53Ym-168" value="" style="endArrow=block;html=1;fontSize=15;fontStyle=2;endFill=0;curved=1;shadow=1;fontFamily=Helvetica;" parent="sGm70nYlVKe_CVyL53Ym-1" source="sGm70nYlVKe_CVyL53Ym-33" target="sGm70nYlVKe_CVyL53Ym-4" edge="1">
          <mxGeometry width="50" height="50" relative="1" as="geometry">
            <mxPoint x="-351" y="-247" as="sourcePoint" />
            <mxPoint x="-840" y="-155" as="targetPoint" />
            <Array as="points">
              <mxPoint x="-440" y="105" />
            </Array>
          </mxGeometry>
        </mxCell>
        <mxCell id="sGm70nYlVKe_CVyL53Ym-169" value="" style="endArrow=block;html=1;fontSize=15;fontStyle=2;curved=1;endFill=0;shadow=1;fontFamily=Helvetica;" parent="sGm70nYlVKe_CVyL53Ym-1" source="sGm70nYlVKe_CVyL53Ym-124" target="sGm70nYlVKe_CVyL53Ym-4" edge="1">
          <mxGeometry width="50" height="50" relative="1" as="geometry">
            <mxPoint x="-591" y="-128" as="sourcePoint" />
            <mxPoint x="-840" y="-144" as="targetPoint" />
            <Array as="points">
              <mxPoint x="-460" y="-20" />
            </Array>
          </mxGeometry>
        </mxCell>
        <mxCell id="sGm70nYlVKe_CVyL53Ym-170" value="" style="endArrow=block;html=1;fontSize=15;fontStyle=2;curved=1;endFill=0;shadow=1;fontFamily=Helvetica;" parent="sGm70nYlVKe_CVyL53Ym-1" source="sGm70nYlVKe_CVyL53Ym-31" target="sGm70nYlVKe_CVyL53Ym-4" edge="1">
          <mxGeometry width="50" height="50" relative="1" as="geometry">
            <mxPoint x="-724" y="96" as="sourcePoint" />
            <mxPoint x="-867" y="-127" as="targetPoint" />
            <Array as="points">
              <mxPoint x="-490" y="450" />
            </Array>
          </mxGeometry>
        </mxCell>
        <mxCell id="sGm70nYlVKe_CVyL53Ym-171" value="" style="endArrow=classic;html=1;dashed=1;fontSize=15;fontStyle=2;fillColor=#f5f5f5;strokeColor=#666666;shadow=1;strokeWidth=2;fontFamily=Helvetica;" parent="sGm70nYlVKe_CVyL53Ym-1" source="sGm70nYlVKe_CVyL53Ym-163" target="sGm70nYlVKe_CVyL53Ym-146" edge="1">
          <mxGeometry width="50" height="50" relative="1" as="geometry">
            <mxPoint x="512" y="280" as="sourcePoint" />
            <mxPoint x="-471" y="618" as="targetPoint" />
          </mxGeometry>
        </mxCell>
        <mxCell id="sGm70nYlVKe_CVyL53Ym-172" value="" style="endArrow=classic;html=1;dashed=1;fontSize=15;fontStyle=2;fillColor=#f5f5f5;strokeColor=#666666;shadow=1;strokeWidth=2;fontFamily=Helvetica;" parent="sGm70nYlVKe_CVyL53Ym-1" source="sGm70nYlVKe_CVyL53Ym-96" target="sGm70nYlVKe_CVyL53Ym-146" edge="1">
          <mxGeometry width="50" height="50" relative="1" as="geometry">
            <mxPoint x="266" y="-95" as="sourcePoint" />
            <mxPoint x="-284" y="867" as="targetPoint" />
          </mxGeometry>
        </mxCell>
        <mxCell id="sGm70nYlVKe_CVyL53Ym-173" value="" style="endArrow=classic;html=1;dashed=1;fontSize=15;fontStyle=2;fillColor=#f5f5f5;strokeColor=#666666;shadow=1;strokeWidth=2;fontFamily=Helvetica;" parent="sGm70nYlVKe_CVyL53Ym-1" source="sGm70nYlVKe_CVyL53Ym-97" target="sGm70nYlVKe_CVyL53Ym-146" edge="1">
          <mxGeometry width="50" height="50" relative="1" as="geometry">
            <mxPoint x="358" y="6" as="sourcePoint" />
            <mxPoint x="-280" y="867" as="targetPoint" />
          </mxGeometry>
        </mxCell>
        <mxCell id="sGm70nYlVKe_CVyL53Ym-174" value="" style="endArrow=classic;html=1;dashed=1;fontSize=15;fontStyle=2;fillColor=#f5f5f5;strokeColor=#666666;shadow=1;strokeWidth=2;fontFamily=Helvetica;" parent="sGm70nYlVKe_CVyL53Ym-1" source="sGm70nYlVKe_CVyL53Ym-94" target="sGm70nYlVKe_CVyL53Ym-146" edge="1">
          <mxGeometry width="50" height="50" relative="1" as="geometry">
            <mxPoint x="448" y="85" as="sourcePoint" />
            <mxPoint x="-276" y="867" as="targetPoint" />
          </mxGeometry>
        </mxCell>
        <mxCell id="sGm70nYlVKe_CVyL53Ym-175" value="&lt;div&gt;&lt;u&gt;Activity&lt;/u&gt;&lt;/div&gt;&lt;div align=&quot;left&quot;&gt;&lt;span style=&quot;font-weight: normal;&quot;&gt;bool: does&lt;/span&gt;&lt;/div&gt;" style="rounded=1;whiteSpace=wrap;html=1;fillColor=#e1d5e7;strokeColor=#FF0080;fontSize=15;fontStyle=3;shadow=1;strokeWidth=5;fontFamily=Helvetica;" parent="sGm70nYlVKe_CVyL53Ym-1" vertex="1">
          <mxGeometry x="-45.220000000000006" y="-400" width="100" height="58.5" as="geometry" />
        </mxCell>
        <mxCell id="sGm70nYlVKe_CVyL53Ym-176" value="OnWebsitePage" style="rounded=1;whiteSpace=wrap;html=1;fillColor=#d5e8d4;strokeColor=#82b366;fontSize=15;fontStyle=2;shadow=1;fontFamily=Helvetica;" parent="sGm70nYlVKe_CVyL53Ym-1" vertex="1">
          <mxGeometry x="1107.3999999999999" y="-209" width="119" height="40" as="geometry" />
        </mxCell>
        <mxCell id="sGm70nYlVKe_CVyL53Ym-177" value="TPS&amp;amp;CMechanism" style="rounded=1;whiteSpace=wrap;html=1;fillColor=#fff2cc;strokeColor=#d6b656;fontSize=15;fontStyle=2;shadow=1;fontFamily=Helvetica;" parent="sGm70nYlVKe_CVyL53Ym-1" vertex="1">
          <mxGeometry x="684.38" y="-150" width="141.92" height="40" as="geometry" />
        </mxCell>
        <mxCell id="sGm70nYlVKe_CVyL53Ym-181" value="" style="endArrow=classic;html=1;dashed=1;fontSize=15;fontStyle=2;fillColor=#fff2cc;strokeColor=#d6b656;shadow=1;strokeWidth=2;curved=1;fontFamily=Helvetica;" parent="sGm70nYlVKe_CVyL53Ym-1" source="sGm70nYlVKe_CVyL53Ym-94" target="sGm70nYlVKe_CVyL53Ym-177" edge="1">
          <mxGeometry width="50" height="50" relative="1" as="geometry">
            <mxPoint x="579" y="-172.53" as="sourcePoint" />
            <mxPoint x="724" y="-172.53" as="targetPoint" />
            <Array as="points">
              <mxPoint x="560" y="20" />
              <mxPoint x="620" y="-80" />
            </Array>
          </mxGeometry>
        </mxCell>
        <mxCell id="sGm70nYlVKe_CVyL53Ym-182" value="" style="endArrow=classic;html=1;dashed=1;fontSize=15;fontStyle=2;fillColor=#e51400;strokeColor=#B20000;shadow=1;strokeWidth=2;curved=1;fontFamily=Helvetica;" parent="sGm70nYlVKe_CVyL53Ym-1" source="sGm70nYlVKe_CVyL53Ym-96" target="clZRZakaBaFwRohTCUgK-24" edge="1">
          <mxGeometry width="50" height="50" relative="1" as="geometry">
            <mxPoint x="589" y="-162.53" as="sourcePoint" />
            <mxPoint x="688.8199999999997" y="-123.30182574170794" as="targetPoint" />
            <Array as="points">
              <mxPoint x="550" y="-80" />
              <mxPoint x="740" y="160" />
            </Array>
          </mxGeometry>
        </mxCell>
        <mxCell id="sGm70nYlVKe_CVyL53Ym-183" value="" style="endArrow=classic;html=1;dashed=1;fontSize=15;fontStyle=2;fillColor=#fff2cc;strokeColor=#d6b656;shadow=1;strokeWidth=2;curved=1;fontFamily=Helvetica;" parent="sGm70nYlVKe_CVyL53Ym-1" source="sGm70nYlVKe_CVyL53Ym-163" target="sGm70nYlVKe_CVyL53Ym-101" edge="1">
          <mxGeometry width="50" height="50" relative="1" as="geometry">
            <mxPoint x="599" y="-152.53" as="sourcePoint" />
            <mxPoint x="744" y="-152.53" as="targetPoint" />
            <Array as="points">
              <mxPoint x="650" y="120" />
              <mxPoint x="710" y="-20" />
            </Array>
          </mxGeometry>
        </mxCell>
        <mxCell id="sGm70nYlVKe_CVyL53Ym-185" value="" style="endArrow=classic;html=1;dashed=1;fontSize=15;fontStyle=2;fillColor=#fff2cc;strokeColor=#d6b656;shadow=1;strokeWidth=2;curved=1;fontFamily=Helvetica;" parent="sGm70nYlVKe_CVyL53Ym-1" source="sGm70nYlVKe_CVyL53Ym-279" target="sGm70nYlVKe_CVyL53Ym-57" edge="1">
          <mxGeometry width="50" height="50" relative="1" as="geometry">
            <mxPoint x="429" y="-50" as="sourcePoint" />
            <mxPoint x="1018" y="-209" as="targetPoint" />
            <Array as="points" />
          </mxGeometry>
        </mxCell>
        <mxCell id="sGm70nYlVKe_CVyL53Ym-209" value="SecureStorage" style="rounded=1;whiteSpace=wrap;html=1;fillColor=#fff2cc;strokeColor=#d6b656;fontSize=15;fontStyle=2;shadow=1;fontFamily=Helvetica;" parent="sGm70nYlVKe_CVyL53Ym-1" vertex="1">
          <mxGeometry x="908.53" y="-470" width="115.5" height="40" as="geometry" />
        </mxCell>
        <mxCell id="sGm70nYlVKe_CVyL53Ym-212" value="" style="endArrow=block;html=1;endFill=0;fontSize=15;fontStyle=2;curved=1;shadow=1;fontFamily=Helvetica;" parent="sGm70nYlVKe_CVyL53Ym-1" source="sGm70nYlVKe_CVyL53Ym-267" target="sGm70nYlVKe_CVyL53Ym-63" edge="1">
          <mxGeometry width="50" height="50" relative="1" as="geometry">
            <mxPoint x="539.32" y="-675" as="sourcePoint" />
            <mxPoint x="778.32" y="-570" as="targetPoint" />
            <Array as="points">
              <mxPoint x="670" y="-340" />
            </Array>
          </mxGeometry>
        </mxCell>
        <mxCell id="sGm70nYlVKe_CVyL53Ym-213" value="LockedOffices" style="rounded=1;whiteSpace=wrap;html=1;fillColor=#fff2cc;strokeColor=#d6b656;fontSize=15;fontStyle=2;shadow=1;fontFamily=Helvetica;" parent="sGm70nYlVKe_CVyL53Ym-1" vertex="1">
          <mxGeometry x="495.77" y="-558.8" width="106" height="40" as="geometry" />
        </mxCell>
        <mxCell id="sGm70nYlVKe_CVyL53Ym-214" value="SecurityTrainings" style="rounded=1;whiteSpace=wrap;html=1;fillColor=#fff2cc;strokeColor=#d6b656;fontSize=15;fontStyle=2;shadow=1;fontFamily=Helvetica;" parent="sGm70nYlVKe_CVyL53Ym-1" vertex="1">
          <mxGeometry x="517.4499999999999" y="-506.17" width="129" height="40" as="geometry" />
        </mxCell>
        <mxCell id="sGm70nYlVKe_CVyL53Ym-215" value="UsersMaintain" style="rounded=1;whiteSpace=wrap;html=1;fillColor=#fff2cc;strokeColor=#d6b656;fontSize=15;fontStyle=2;shadow=1;fontFamily=Helvetica;" parent="sGm70nYlVKe_CVyL53Ym-1" vertex="1">
          <mxGeometry x="491.02" y="-458.8" width="107" height="40" as="geometry" />
        </mxCell>
        <mxCell id="sGm70nYlVKe_CVyL53Ym-216" value="" style="endArrow=block;html=1;endFill=0;fontSize=15;fontStyle=2;curved=1;shadow=1;fontFamily=Helvetica;" parent="sGm70nYlVKe_CVyL53Ym-1" source="sGm70nYlVKe_CVyL53Ym-269" target="sGm70nYlVKe_CVyL53Ym-64" edge="1">
          <mxGeometry width="50" height="50" relative="1" as="geometry">
            <mxPoint x="1117.41" y="-661" as="sourcePoint" />
            <mxPoint x="1068.41" y="-593" as="targetPoint" />
          </mxGeometry>
        </mxCell>
        <mxCell id="sGm70nYlVKe_CVyL53Ym-217" value="" style="endArrow=classic;html=1;dashed=1;fontSize=15;fontStyle=2;fillColor=#b0e3e6;strokeColor=#0e8088;shadow=1;strokeWidth=2;curved=1;fontFamily=Helvetica;" parent="sGm70nYlVKe_CVyL53Ym-1" source="sGm70nYlVKe_CVyL53Ym-258" target="clZRZakaBaFwRohTCUgK-26" edge="1">
          <mxGeometry width="50" height="50" relative="1" as="geometry">
            <mxPoint x="590.46" y="-30" as="sourcePoint" />
            <mxPoint x="850" y="140" as="targetPoint" />
            <Array as="points">
              <mxPoint x="620" y="230" />
              <mxPoint x="740" y="130" />
            </Array>
          </mxGeometry>
        </mxCell>
        <mxCell id="sGm70nYlVKe_CVyL53Ym-218" value="BreachInvestigation" style="rounded=1;whiteSpace=wrap;html=1;fontSize=15;fontStyle=2;fillColor=#1ba1e2;strokeColor=#006EAF;fontColor=#ffffff;shadow=1;fontFamily=Helvetica;" parent="sGm70nYlVKe_CVyL53Ym-1" vertex="1">
          <mxGeometry x="676.3000000000001" y="805.5" width="150" height="40" as="geometry" />
        </mxCell>
        <mxCell id="sGm70nYlVKe_CVyL53Ym-219" value="" style="endArrow=classic;html=1;dashed=1;fontSize=15;fontStyle=2;fillColor=#e1d5e7;strokeColor=#9999FF;shadow=1;strokeWidth=2;fontFamily=Helvetica;curved=1;" parent="sGm70nYlVKe_CVyL53Ym-1" source="sGm70nYlVKe_CVyL53Ym-175" target="sGm70nYlVKe_CVyL53Ym-175" edge="1">
          <mxGeometry width="50" height="50" relative="1" as="geometry">
            <mxPoint x="-260" y="-834" as="sourcePoint" />
            <mxPoint x="60" y="-420" as="targetPoint" />
            <Array as="points">
              <mxPoint x="-30" y="-320" />
              <mxPoint x="2" y="-300" />
              <mxPoint x="30" y="-320" />
            </Array>
          </mxGeometry>
        </mxCell>
        <mxCell id="sGm70nYlVKe_CVyL53Ym-220" value="" style="endArrow=classic;html=1;dashed=1;fontSize=15;fontStyle=2;curved=1;fillColor=#d80073;strokeColor=#FF99FF;shadow=1;strokeWidth=5;fontFamily=Helvetica;" parent="sGm70nYlVKe_CVyL53Ym-1" source="sGm70nYlVKe_CVyL53Ym-2" target="sGm70nYlVKe_CVyL53Ym-2" edge="1">
          <mxGeometry width="50" height="50" relative="1" as="geometry">
            <mxPoint x="-283.98" y="-287.25" as="sourcePoint" />
            <mxPoint x="-401.98" y="176.75" as="targetPoint" />
            <Array as="points">
              <mxPoint x="-440.98" y="-330.25" />
              <mxPoint x="-385.98" y="-370.25" />
              <mxPoint x="-330.98" y="-330.25" />
            </Array>
          </mxGeometry>
        </mxCell>
        <mxCell id="sGm70nYlVKe_CVyL53Ym-221" value="" style="endArrow=block;html=1;endFill=0;fontSize=15;fontStyle=2;curved=1;shadow=1;fontFamily=Helvetica;" parent="sGm70nYlVKe_CVyL53Ym-1" source="clZRZakaBaFwRohTCUgK-6" target="sGm70nYlVKe_CVyL53Ym-175" edge="1">
          <mxGeometry width="50" height="50" relative="1" as="geometry">
            <mxPoint x="538.6624137931035" y="-50" as="sourcePoint" />
            <mxPoint x="300" y="-237" as="targetPoint" />
            <Array as="points">
              <mxPoint x="540" y="-120" />
              <mxPoint x="310" y="-320" />
            </Array>
          </mxGeometry>
        </mxCell>
        <mxCell id="sGm70nYlVKe_CVyL53Ym-222" value="" style="endArrow=classic;html=1;dashed=1;fontSize=15;fontStyle=2;fillColor=#f5f5f5;strokeColor=#666666;shadow=1;strokeWidth=2;fontFamily=Helvetica;" parent="sGm70nYlVKe_CVyL53Ym-1" source="sGm70nYlVKe_CVyL53Ym-115" target="sGm70nYlVKe_CVyL53Ym-146" edge="1">
          <mxGeometry width="50" height="50" relative="1" as="geometry">
            <mxPoint x="358" y="-20" as="sourcePoint" />
            <mxPoint x="-195" y="770" as="targetPoint" />
          </mxGeometry>
        </mxCell>
        <mxCell id="sGm70nYlVKe_CVyL53Ym-223" value="" style="endArrow=classic;html=1;dashed=1;fontSize=15;fontStyle=2;fillColor=#f5f5f5;strokeColor=#666666;shadow=1;strokeWidth=2;fontFamily=Helvetica;" parent="sGm70nYlVKe_CVyL53Ym-1" source="sGm70nYlVKe_CVyL53Ym-116" target="sGm70nYlVKe_CVyL53Ym-146" edge="1">
          <mxGeometry width="50" height="50" relative="1" as="geometry">
            <mxPoint x="446" y="50" as="sourcePoint" />
            <mxPoint x="-191" y="770" as="targetPoint" />
          </mxGeometry>
        </mxCell>
        <mxCell id="sGm70nYlVKe_CVyL53Ym-224" value="SecureTunnel" style="rounded=1;whiteSpace=wrap;html=1;fillColor=#fff2cc;strokeColor=#d6b656;fontSize=15;fontStyle=2;shadow=1;fontFamily=Helvetica;" parent="sGm70nYlVKe_CVyL53Ym-1" vertex="1">
          <mxGeometry x="914.81" y="-520" width="109.25" height="40" as="geometry" />
        </mxCell>
        <mxCell id="sGm70nYlVKe_CVyL53Ym-225" value="" style="endArrow=block;html=1;endFill=0;fontSize=15;fontStyle=2;curved=1;shadow=1;fontFamily=Helvetica;" parent="sGm70nYlVKe_CVyL53Ym-1" source="sGm70nYlVKe_CVyL53Ym-268" target="sGm70nYlVKe_CVyL53Ym-65" edge="1">
          <mxGeometry width="50" height="50" relative="1" as="geometry">
            <mxPoint x="1012.5299999999999" y="-626" as="sourcePoint" />
            <mxPoint x="1047.53" y="-575" as="targetPoint" />
            <Array as="points">
              <mxPoint x="910" y="-360" />
            </Array>
          </mxGeometry>
        </mxCell>
        <mxCell id="sGm70nYlVKe_CVyL53Ym-230" value="" style="endArrow=classic;html=1;dashed=1;fontSize=15;fontStyle=2;fillColor=#dae8fc;strokeColor=#6c8ebf;shadow=1;strokeWidth=2;fontFamily=Helvetica;" parent="sGm70nYlVKe_CVyL53Ym-1" source="sGm70nYlVKe_CVyL53Ym-96" target="sGm70nYlVKe_CVyL53Ym-31" edge="1">
          <mxGeometry width="50" height="50" relative="1" as="geometry">
            <mxPoint x="199" y="-98" as="sourcePoint" />
            <mxPoint x="-234" y="80" as="targetPoint" />
          </mxGeometry>
        </mxCell>
        <mxCell id="sGm70nYlVKe_CVyL53Ym-231" value="" style="endArrow=classic;html=1;dashed=1;fontSize=15;fontStyle=2;fillColor=#f5f5f5;strokeColor=#666666;shadow=1;strokeWidth=2;fontFamily=Helvetica;" parent="sGm70nYlVKe_CVyL53Ym-1" source="sGm70nYlVKe_CVyL53Ym-13" target="sGm70nYlVKe_CVyL53Ym-146" edge="1">
          <mxGeometry width="50" height="50" relative="1" as="geometry">
            <mxPoint x="499" y="510" as="sourcePoint" />
            <mxPoint x="-178" y="778" as="targetPoint" />
          </mxGeometry>
        </mxCell>
        <mxCell id="sGm70nYlVKe_CVyL53Ym-232" value="TransmissionByRequest" style="rounded=1;whiteSpace=wrap;html=1;fillColor=#e3c800;strokeColor=#B09500;fontSize=15;fontStyle=2;fontColor=#000000;shadow=1;fontFamily=Helvetica;" parent="sGm70nYlVKe_CVyL53Ym-1" vertex="1">
          <mxGeometry x="169.50999999999982" y="-530.62" width="90" height="40" as="geometry" />
        </mxCell>
        <mxCell id="sGm70nYlVKe_CVyL53Ym-233" value="Permanent" style="rounded=1;whiteSpace=wrap;html=1;fillColor=#e3c800;strokeColor=#B09500;fontSize=15;fontStyle=2;fontColor=#000000;shadow=1;fontFamily=Helvetica;" parent="sGm70nYlVKe_CVyL53Ym-1" vertex="1">
          <mxGeometry x="178.5299999999998" y="-475.87" width="87.75" height="40" as="geometry" />
        </mxCell>
        <mxCell id="sGm70nYlVKe_CVyL53Ym-235" value="" style="endArrow=block;html=1;endFill=0;fontSize=15;fontStyle=2;curved=1;shadow=1;fontFamily=Helvetica;" parent="sGm70nYlVKe_CVyL53Ym-1" source="sGm70nYlVKe_CVyL53Ym-277" target="sGm70nYlVKe_CVyL53Ym-82" edge="1">
          <mxGeometry width="50" height="50" relative="1" as="geometry">
            <mxPoint x="547.9399999999997" y="-754.5" as="sourcePoint" />
            <mxPoint x="427.93999999999977" y="-756.5" as="targetPoint" />
          </mxGeometry>
        </mxCell>
        <mxCell id="sGm70nYlVKe_CVyL53Ym-242" value="EuropeanResident" style="rounded=1;whiteSpace=wrap;html=1;fillColor=#76608a;strokeColor=#432D57;fontSize=15;fontStyle=2;fontColor=#ffffff;shadow=1;fontFamily=Helvetica;" parent="sGm70nYlVKe_CVyL53Ym-1" vertex="1">
          <mxGeometry x="-840" y="455.5" width="150" height="40" as="geometry" />
        </mxCell>
        <mxCell id="sGm70nYlVKe_CVyL53Ym-243" value="CaliforniaResident" style="rounded=1;whiteSpace=wrap;html=1;fillColor=#76608a;strokeColor=#432D57;fontSize=15;fontStyle=2;fontColor=#ffffff;shadow=1;fontFamily=Helvetica;" parent="sGm70nYlVKe_CVyL53Ym-1" vertex="1">
          <mxGeometry x="-860" y="560" width="140" height="40" as="geometry" />
        </mxCell>
        <mxCell id="sGm70nYlVKe_CVyL53Ym-244" value="Child" style="rounded=1;whiteSpace=wrap;html=1;fillColor=#76608a;strokeColor=#432D57;fontSize=15;fontStyle=2;fontColor=#ffffff;shadow=1;fontFamily=Helvetica;" parent="sGm70nYlVKe_CVyL53Ym-1" vertex="1">
          <mxGeometry x="-780" y="617.79" width="60" height="40" as="geometry" />
        </mxCell>
        <mxCell id="sGm70nYlVKe_CVyL53Ym-245" value="" style="endArrow=block;html=1;endFill=0;fontSize=15;fontStyle=2;shadow=1;curved=1;fontFamily=Helvetica;" parent="sGm70nYlVKe_CVyL53Ym-1" source="sGm70nYlVKe_CVyL53Ym-275" target="sGm70nYlVKe_CVyL53Ym-55" edge="1">
          <mxGeometry width="50" height="50" relative="1" as="geometry">
            <mxPoint x="-1529" y="77.5" as="sourcePoint" />
            <mxPoint x="-890.5609756097565" y="268.5" as="targetPoint" />
          </mxGeometry>
        </mxCell>
        <mxCell id="sGm70nYlVKe_CVyL53Ym-246" value="RussianFederationResident" style="rounded=1;whiteSpace=wrap;html=1;fillColor=#76608a;strokeColor=#432D57;fontSize=15;fontStyle=2;fontColor=#ffffff;shadow=1;fontFamily=Helvetica;" parent="sGm70nYlVKe_CVyL53Ym-1" vertex="1">
          <mxGeometry x="-869.25" y="510.5" width="197.5" height="40" as="geometry" />
        </mxCell>
        <mxCell id="sGm70nYlVKe_CVyL53Ym-250" value="HealthMonitoring" style="rounded=1;whiteSpace=wrap;html=1;fillColor=#6a00ff;strokeColor=#3700CC;fontSize=15;fontStyle=2;fontColor=#ffffff;shadow=1;fontFamily=Helvetica;" parent="sGm70nYlVKe_CVyL53Ym-1" vertex="1">
          <mxGeometry x="-358.61" y="-620" width="130" height="40" as="geometry" />
        </mxCell>
        <mxCell id="sGm70nYlVKe_CVyL53Ym-251" value="ServiceProvisionPurpose" style="rounded=1;whiteSpace=wrap;html=1;fillColor=#6a00ff;strokeColor=#3700CC;fontSize=15;fontStyle=2;fontColor=#ffffff;shadow=1;fontFamily=Helvetica;" parent="sGm70nYlVKe_CVyL53Ym-1" vertex="1">
          <mxGeometry x="-170" y="-615" width="130" height="40" as="geometry" />
        </mxCell>
        <mxCell id="sGm70nYlVKe_CVyL53Ym-252" value="" style="endArrow=block;html=1;endFill=0;fontSize=15;fontStyle=2;shadow=1;fontFamily=Helvetica;" parent="sGm70nYlVKe_CVyL53Ym-1" source="sGm70nYlVKe_CVyL53Ym-251" target="sGm70nYlVKe_CVyL53Ym-56" edge="1">
          <mxGeometry width="50" height="50" relative="1" as="geometry">
            <mxPoint x="-489.71" y="-550.32" as="sourcePoint" />
            <mxPoint x="-532.71" y="-550.32" as="targetPoint" />
          </mxGeometry>
        </mxCell>
        <mxCell id="sGm70nYlVKe_CVyL53Ym-253" value="" style="endArrow=block;html=1;endFill=0;fontSize=15;fontStyle=2;shadow=1;fontFamily=Helvetica;" parent="sGm70nYlVKe_CVyL53Ym-1" source="sGm70nYlVKe_CVyL53Ym-250" target="sGm70nYlVKe_CVyL53Ym-251" edge="1">
          <mxGeometry width="50" height="50" relative="1" as="geometry">
            <mxPoint x="74.55000000000004" y="-767.32" as="sourcePoint" />
            <mxPoint x="142.54999999999998" y="-680.32" as="targetPoint" />
          </mxGeometry>
        </mxCell>
        <mxCell id="sGm70nYlVKe_CVyL53Ym-256" value="" style="endArrow=block;html=1;endFill=0;fontSize=15;fontStyle=2;curved=1;shadow=1;fontFamily=Helvetica;" parent="sGm70nYlVKe_CVyL53Ym-1" source="sGm70nYlVKe_CVyL53Ym-265" target="sGm70nYlVKe_CVyL53Ym-177" edge="1">
          <mxGeometry width="50" height="50" relative="1" as="geometry">
            <mxPoint x="933" y="-156" as="sourcePoint" />
            <mxPoint x="1008" y="-165" as="targetPoint" />
            <Array as="points">
              <mxPoint x="960" y="-146" />
            </Array>
          </mxGeometry>
        </mxCell>
        <mxCell id="sGm70nYlVKe_CVyL53Ym-258" value="FPNotification" style="rounded=1;whiteSpace=wrap;html=1;fillColor=#e1d5e7;strokeColor=#9673a6;fontSize=15;fontStyle=2;shadow=1;fontFamily=Helvetica;" parent="sGm70nYlVKe_CVyL53Ym-1" vertex="1">
          <mxGeometry x="457" y="214.5" width="101.62" height="40" as="geometry" />
        </mxCell>
        <mxCell id="sGm70nYlVKe_CVyL53Ym-261" value="" style="endArrow=block;html=1;endFill=0;fontSize=15;fontStyle=2;curved=1;shadow=1;fontFamily=Helvetica;" parent="sGm70nYlVKe_CVyL53Ym-1" source="sGm70nYlVKe_CVyL53Ym-264" target="sGm70nYlVKe_CVyL53Ym-101" edge="1">
          <mxGeometry width="50" height="50" relative="1" as="geometry">
            <mxPoint x="1071" y="32" as="sourcePoint" />
            <mxPoint x="1150" as="targetPoint" />
            <Array as="points">
              <mxPoint x="1040" y="-250" />
              <mxPoint x="980" y="-120" />
            </Array>
          </mxGeometry>
        </mxCell>
        <mxCell id="sGm70nYlVKe_CVyL53Ym-279" value="DataProtection" style="rounded=1;whiteSpace=wrap;html=1;fillColor=#e1d5e7;strokeColor=#9673a6;fontSize=15;fontStyle=2;shadow=1;fontFamily=Helvetica;" parent="sGm70nYlVKe_CVyL53Ym-1" vertex="1">
          <mxGeometry x="141.38" y="-200" width="107.63" height="40" as="geometry" />
        </mxCell>
        <mxCell id="sGm70nYlVKe_CVyL53Ym-280" value="" style="endArrow=block;html=1;endFill=0;fontSize=15;fontStyle=2;curved=1;shadow=1;fontFamily=Helvetica;" parent="sGm70nYlVKe_CVyL53Ym-1" source="sGm70nYlVKe_CVyL53Ym-279" target="sGm70nYlVKe_CVyL53Ym-85" edge="1">
          <mxGeometry width="50" height="50" relative="1" as="geometry">
            <mxPoint x="85" y="-218" as="sourcePoint" />
            <mxPoint x="227" y="-246" as="targetPoint" />
            <Array as="points">
              <mxPoint x="230" y="-220" />
            </Array>
          </mxGeometry>
        </mxCell>
        <mxCell id="sGm70nYlVKe_CVyL53Ym-281" value="" style="endArrow=classic;html=1;dashed=1;fontSize=15;fontStyle=2;fillColor=#e1d5e7;strokeColor=#9673a6;shadow=1;strokeWidth=2;fontFamily=Helvetica;" parent="sGm70nYlVKe_CVyL53Ym-1" source="sGm70nYlVKe_CVyL53Ym-124" target="sGm70nYlVKe_CVyL53Ym-279" edge="1">
          <mxGeometry width="50" height="50" relative="1" as="geometry">
            <mxPoint x="-270" y="-116" as="sourcePoint" />
            <mxPoint x="48" y="-191" as="targetPoint" />
          </mxGeometry>
        </mxCell>
        <mxCell id="sGm70nYlVKe_CVyL53Ym-282" value="" style="endArrow=classic;html=1;dashed=1;fontSize=15;fontStyle=2;fillColor=#f5f5f5;strokeColor=#666666;shadow=1;strokeWidth=2;fontFamily=Helvetica;" parent="sGm70nYlVKe_CVyL53Ym-1" source="sGm70nYlVKe_CVyL53Ym-279" target="sGm70nYlVKe_CVyL53Ym-146" edge="1">
          <mxGeometry width="50" height="50" relative="1" as="geometry">
            <mxPoint x="298" y="-80" as="sourcePoint" />
            <mxPoint x="-211" y="760" as="targetPoint" />
          </mxGeometry>
        </mxCell>
        <mxCell id="sGm70nYlVKe_CVyL53Ym-285" value="Marketing" style="rounded=1;whiteSpace=wrap;html=1;fillColor=#6a00ff;strokeColor=#3700CC;fontSize=15;fontStyle=2;fontColor=#ffffff;shadow=1;fontFamily=Helvetica;" parent="sGm70nYlVKe_CVyL53Ym-1" vertex="1">
          <mxGeometry x="-539.73" y="-471.49" width="86.93" height="40" as="geometry" />
        </mxCell>
        <mxCell id="sGm70nYlVKe_CVyL53Ym-286" value="Analytics" style="rounded=1;whiteSpace=wrap;html=1;fillColor=#6a00ff;strokeColor=#3700CC;fontSize=15;fontStyle=2;fontColor=#ffffff;shadow=1;fontFamily=Helvetica;" parent="sGm70nYlVKe_CVyL53Ym-1" vertex="1">
          <mxGeometry x="-549.81" y="-527.94" width="86.93" height="40" as="geometry" />
        </mxCell>
        <mxCell id="sGm70nYlVKe_CVyL53Ym-287" value="Security" style="rounded=1;whiteSpace=wrap;html=1;fillColor=#6a00ff;strokeColor=#3700CC;fontSize=15;fontStyle=2;fontColor=#ffffff;shadow=1;fontFamily=Helvetica;" parent="sGm70nYlVKe_CVyL53Ym-1" vertex="1">
          <mxGeometry x="-452.79999999999995" y="-537.24" width="86.93" height="40" as="geometry" />
        </mxCell>
        <mxCell id="sGm70nYlVKe_CVyL53Ym-288" value="Research" style="rounded=1;whiteSpace=wrap;html=1;fillColor=#6a00ff;strokeColor=#3700CC;fontSize=15;fontStyle=2;fontColor=#ffffff;shadow=1;fontFamily=Helvetica;" parent="sGm70nYlVKe_CVyL53Ym-1" vertex="1">
          <mxGeometry x="-442.11" y="-483.25" width="83.5" height="40" as="geometry" />
        </mxCell>
        <mxCell id="sGm70nYlVKe_CVyL53Ym-290" value="" style="endArrow=block;html=1;endFill=0;fontSize=15;fontStyle=2;shadow=1;fontFamily=Helvetica;" parent="sGm70nYlVKe_CVyL53Ym-1" source="sGm70nYlVKe_CVyL53Ym-289" target="sGm70nYlVKe_CVyL53Ym-291" edge="1">
          <mxGeometry width="50" height="50" relative="1" as="geometry">
            <mxPoint x="-506.2448956973114" y="-596.8986830567668" as="sourcePoint" />
            <mxPoint x="-517.7000000000002" y="-566.0751988591351" as="targetPoint" />
          </mxGeometry>
        </mxCell>
        <mxCell id="sGm70nYlVKe_CVyL53Ym-291" value="ServiceEnhancement" style="rounded=1;whiteSpace=wrap;html=1;fillColor=#6a00ff;strokeColor=#3700CC;fontSize=15;fontStyle=2;fontColor=#ffffff;shadow=1;fontFamily=Helvetica;" parent="sGm70nYlVKe_CVyL53Ym-1" vertex="1">
          <mxGeometry x="-292" y="-565" width="155.96" height="40" as="geometry" />
        </mxCell>
        <mxCell id="sGm70nYlVKe_CVyL53Ym-292" value="" style="endArrow=block;html=1;endFill=0;fontSize=15;fontStyle=2;shadow=1;fontFamily=Helvetica;" parent="sGm70nYlVKe_CVyL53Ym-1" source="sGm70nYlVKe_CVyL53Ym-291" target="sGm70nYlVKe_CVyL53Ym-56" edge="1">
          <mxGeometry width="50" height="50" relative="1" as="geometry">
            <mxPoint x="-65.22" y="-534.07" as="sourcePoint" />
            <mxPoint x="-17.22" y="-503.07" as="targetPoint" />
          </mxGeometry>
        </mxCell>
        <mxCell id="clZRZakaBaFwRohTCUgK-3" value="UserNotification" style="rounded=1;whiteSpace=wrap;html=1;fillColor=#e1d5e7;strokeColor=#9673a6;fontSize=15;fontStyle=2;shadow=1;fontFamily=Helvetica;" parent="sGm70nYlVKe_CVyL53Ym-1" vertex="1">
          <mxGeometry x="440.68" y="303.5" width="111.47" height="40" as="geometry" />
        </mxCell>
        <mxCell id="clZRZakaBaFwRohTCUgK-5" value="TPCollection" style="rounded=1;whiteSpace=wrap;html=1;fillColor=#e1d5e7;strokeColor=#9673a6;fontSize=15;fontStyle=2;shadow=1;fontFamily=Helvetica;" parent="sGm70nYlVKe_CVyL53Ym-1" vertex="1">
          <mxGeometry x="340.37" y="-62" width="96.13" height="40" as="geometry" />
        </mxCell>
        <mxCell id="clZRZakaBaFwRohTCUgK-6" value="Notification" style="rounded=1;whiteSpace=wrap;html=1;fillColor=#e1d5e7;strokeColor=#9673a6;fontSize=15;fontStyle=2;shadow=1;fontFamily=Helvetica;" parent="sGm70nYlVKe_CVyL53Ym-1" vertex="1">
          <mxGeometry x="538.07" y="50.46" width="91.93" height="40" as="geometry" />
        </mxCell>
        <mxCell id="clZRZakaBaFwRohTCUgK-7" value="" style="endArrow=block;html=1;endFill=0;fontSize=15;fontStyle=2;curved=1;shadow=1;fontFamily=Helvetica;" parent="sGm70nYlVKe_CVyL53Ym-1" source="clZRZakaBaFwRohTCUgK-5" target="sGm70nYlVKe_CVyL53Ym-85" edge="1">
          <mxGeometry width="50" height="50" relative="1" as="geometry">
            <mxPoint x="312" y="-120" as="sourcePoint" />
            <mxPoint x="277" y="-243" as="targetPoint" />
            <Array as="points">
              <mxPoint x="360" y="-170" />
            </Array>
          </mxGeometry>
        </mxCell>
        <mxCell id="clZRZakaBaFwRohTCUgK-8" value="" style="endArrow=block;html=1;endFill=0;fontSize=15;fontStyle=2;curved=1;shadow=1;fontFamily=Helvetica;" parent="sGm70nYlVKe_CVyL53Ym-1" source="sGm70nYlVKe_CVyL53Ym-258" target="clZRZakaBaFwRohTCUgK-6" edge="1">
          <mxGeometry width="50" height="50" relative="1" as="geometry">
            <mxPoint x="512" y="128" as="sourcePoint" />
            <mxPoint x="302" y="-243" as="targetPoint" />
            <Array as="points">
              <mxPoint x="580" y="170" />
            </Array>
          </mxGeometry>
        </mxCell>
        <mxCell id="clZRZakaBaFwRohTCUgK-9" value="" style="endArrow=block;html=1;endFill=0;fontSize=15;fontStyle=2;curved=1;shadow=1;fontFamily=Helvetica;" parent="sGm70nYlVKe_CVyL53Ym-1" source="clZRZakaBaFwRohTCUgK-3" target="clZRZakaBaFwRohTCUgK-6" edge="1">
          <mxGeometry width="50" height="50" relative="1" as="geometry">
            <mxPoint x="545" y="225" as="sourcePoint" />
            <mxPoint x="592" y="90" as="targetPoint" />
            <Array as="points">
              <mxPoint x="610" y="240" />
            </Array>
          </mxGeometry>
        </mxCell>
        <mxCell id="clZRZakaBaFwRohTCUgK-11" value="" style="endArrow=classic;html=1;dashed=1;fontSize=15;fontStyle=2;fillColor=#d5e8d4;strokeColor=#82b366;shadow=1;strokeWidth=2;curved=1;fontFamily=Helvetica;" parent="sGm70nYlVKe_CVyL53Ym-1" source="clZRZakaBaFwRohTCUgK-3" target="clZRZakaBaFwRohTCUgK-26" edge="1">
          <mxGeometry width="50" height="50" relative="1" as="geometry">
            <mxPoint x="569" y="230" as="sourcePoint" />
            <mxPoint x="862.6706697819309" y="189.5" as="targetPoint" />
            <Array as="points">
              <mxPoint x="630" y="290" />
              <mxPoint x="750" y="150" />
            </Array>
          </mxGeometry>
        </mxCell>
        <mxCell id="clZRZakaBaFwRohTCUgK-12" value="" style="endArrow=classic;html=1;dashed=1;fontSize=15;fontStyle=2;fillColor=#fff2cc;strokeColor=#d6b656;shadow=1;strokeWidth=2;curved=1;fontFamily=Helvetica;" parent="sGm70nYlVKe_CVyL53Ym-1" source="clZRZakaBaFwRohTCUgK-5" target="sGm70nYlVKe_CVyL53Ym-177" edge="1">
          <mxGeometry width="50" height="50" relative="1" as="geometry">
            <mxPoint x="502" y="42" as="sourcePoint" />
            <mxPoint x="774" y="-31" as="targetPoint" />
            <Array as="points">
              <mxPoint x="510" y="-40" />
              <mxPoint x="610" y="-120" />
            </Array>
          </mxGeometry>
        </mxCell>
        <mxCell id="clZRZakaBaFwRohTCUgK-15" value="" style="endArrow=classic;html=1;dashed=1;fontSize=15;fontStyle=2;fillColor=#f5f5f5;strokeColor=#666666;shadow=1;strokeWidth=2;fontFamily=Helvetica;" parent="sGm70nYlVKe_CVyL53Ym-1" source="clZRZakaBaFwRohTCUgK-5" target="sGm70nYlVKe_CVyL53Ym-146" edge="1">
          <mxGeometry width="50" height="50" relative="1" as="geometry">
            <mxPoint x="441" y="74" as="sourcePoint" />
            <mxPoint x="-204" y="760" as="targetPoint" />
          </mxGeometry>
        </mxCell>
        <mxCell id="clZRZakaBaFwRohTCUgK-16" value="" style="endArrow=classic;html=1;dashed=1;fontSize=15;fontStyle=2;fillColor=#e1d5e7;strokeColor=#9673a6;shadow=1;strokeWidth=2;fontFamily=Helvetica;" parent="sGm70nYlVKe_CVyL53Ym-1" source="sGm70nYlVKe_CVyL53Ym-31" target="clZRZakaBaFwRohTCUgK-3" edge="1">
          <mxGeometry width="50" height="50" relative="1" as="geometry">
            <mxPoint x="-282" y="560" as="sourcePoint" />
            <mxPoint x="305" y="604" as="targetPoint" />
          </mxGeometry>
        </mxCell>
        <mxCell id="clZRZakaBaFwRohTCUgK-17" value="" style="endArrow=classic;html=1;dashed=1;fontSize=15;fontStyle=2;fillColor=#e1d5e7;strokeColor=#9673a6;shadow=1;strokeWidth=2;fontFamily=Helvetica;" parent="sGm70nYlVKe_CVyL53Ym-1" source="sGm70nYlVKe_CVyL53Ym-124" target="sGm70nYlVKe_CVyL53Ym-258" edge="1">
          <mxGeometry width="50" height="50" relative="1" as="geometry">
            <mxPoint x="-282" y="551" as="sourcePoint" />
            <mxPoint x="485" y="348" as="targetPoint" />
          </mxGeometry>
        </mxCell>
        <mxCell id="clZRZakaBaFwRohTCUgK-18" value="" style="endArrow=classic;html=1;dashed=1;fontSize=15;fontStyle=2;fillColor=#dae8fc;strokeColor=#C0D1BE;shadow=1;strokeWidth=2;fontFamily=Helvetica;" parent="sGm70nYlVKe_CVyL53Ym-1" source="sGm70nYlVKe_CVyL53Ym-258" target="sGm70nYlVKe_CVyL53Ym-31" edge="1">
          <mxGeometry width="50" height="50" relative="1" as="geometry">
            <mxPoint x="293" y="-80" as="sourcePoint" />
            <mxPoint x="-290" y="538" as="targetPoint" />
          </mxGeometry>
        </mxCell>
        <mxCell id="clZRZakaBaFwRohTCUgK-19" value="" style="endArrow=classic;html=1;dashed=1;fontSize=15;fontStyle=2;fillColor=#dae8fc;strokeColor=#C0D1BE;shadow=1;strokeWidth=2;fontFamily=Helvetica;" parent="sGm70nYlVKe_CVyL53Ym-1" source="clZRZakaBaFwRohTCUgK-3" target="sGm70nYlVKe_CVyL53Ym-124" edge="1">
          <mxGeometry width="50" height="50" relative="1" as="geometry">
            <mxPoint x="482" y="261" as="sourcePoint" />
            <mxPoint x="-282" y="548" as="targetPoint" />
          </mxGeometry>
        </mxCell>
        <mxCell id="clZRZakaBaFwRohTCUgK-20" value="" style="endArrow=classic;html=1;dashed=1;fontSize=15;fontStyle=2;fillColor=#dae8fc;strokeColor=#6c8ebf;shadow=1;strokeWidth=2;fontFamily=Helvetica;" parent="sGm70nYlVKe_CVyL53Ym-1" source="clZRZakaBaFwRohTCUgK-5" target="sGm70nYlVKe_CVyL53Ym-33" edge="1">
          <mxGeometry width="50" height="50" relative="1" as="geometry">
            <mxPoint x="293" y="-80" as="sourcePoint" />
            <mxPoint x="-290" y="538" as="targetPoint" />
          </mxGeometry>
        </mxCell>
        <mxCell id="clZRZakaBaFwRohTCUgK-21" value="" style="endArrow=classic;html=1;dashed=1;fontSize=15;fontStyle=2;fillColor=#e1d5e7;strokeColor=#9673a6;shadow=1;strokeWidth=2;fontFamily=Helvetica;" parent="sGm70nYlVKe_CVyL53Ym-1" source="sGm70nYlVKe_CVyL53Ym-124" target="sGm70nYlVKe_CVyL53Ym-94" edge="1">
          <mxGeometry width="50" height="50" relative="1" as="geometry">
            <mxPoint x="-270" y="-117" as="sourcePoint" />
            <mxPoint x="40" y="-201" as="targetPoint" />
          </mxGeometry>
        </mxCell>
        <mxCell id="clZRZakaBaFwRohTCUgK-22" value="" style="endArrow=classic;html=1;dashed=1;fontSize=15;fontStyle=2;fillColor=#dae8fc;strokeColor=#FFCCCC;shadow=1;strokeWidth=2;fontFamily=Helvetica;" parent="sGm70nYlVKe_CVyL53Ym-1" source="sGm70nYlVKe_CVyL53Ym-94" target="sGm70nYlVKe_CVyL53Ym-33" edge="1">
          <mxGeometry width="50" height="50" relative="1" as="geometry">
            <mxPoint x="350" y="-22" as="sourcePoint" />
            <mxPoint x="-270" y="102" as="targetPoint" />
          </mxGeometry>
        </mxCell>
        <mxCell id="clZRZakaBaFwRohTCUgK-23" value="" style="endArrow=classic;html=1;dashed=1;fontSize=15;fontStyle=2;fillColor=#e1d5e7;strokeColor=#9673a6;shadow=1;strokeWidth=2;fontFamily=Helvetica;" parent="sGm70nYlVKe_CVyL53Ym-1" source="sGm70nYlVKe_CVyL53Ym-124" target="clZRZakaBaFwRohTCUgK-5" edge="1">
          <mxGeometry width="50" height="50" relative="1" as="geometry">
            <mxPoint x="-270" y="-99" as="sourcePoint" />
            <mxPoint x="419" y="45" as="targetPoint" />
          </mxGeometry>
        </mxCell>
        <mxCell id="clZRZakaBaFwRohTCUgK-24" value="UserSpecific" style="rounded=1;whiteSpace=wrap;html=1;fontSize=15;fontStyle=2;fillColor=#d5e8d4;strokeColor=#82b366;shadow=1;fontFamily=Helvetica;" parent="sGm70nYlVKe_CVyL53Ym-1" vertex="1">
          <mxGeometry x="830.7900000000001" y="167" width="99.61" height="40" as="geometry" />
        </mxCell>
        <mxCell id="clZRZakaBaFwRohTCUgK-25" value="FPSpecific" style="rounded=1;whiteSpace=wrap;html=1;fontSize=15;fontStyle=2;fillColor=#d5e8d4;strokeColor=#82b366;shadow=1;fontFamily=Helvetica;" parent="sGm70nYlVKe_CVyL53Ym-1" vertex="1">
          <mxGeometry x="784.93" y="11" width="85.07" height="40" as="geometry" />
        </mxCell>
        <mxCell id="clZRZakaBaFwRohTCUgK-26" value="Mutual" style="rounded=1;whiteSpace=wrap;html=1;fontSize=15;fontStyle=2;fillColor=#d5e8d4;strokeColor=#82b366;shadow=1;fontFamily=Helvetica;" parent="sGm70nYlVKe_CVyL53Ym-1" vertex="1">
          <mxGeometry x="825.91" y="95.25" width="55.91" height="40" as="geometry" />
        </mxCell>
        <mxCell id="clZRZakaBaFwRohTCUgK-29" value="" style="endArrow=block;html=1;endFill=0;fontSize=15;fontStyle=2;curved=1;shadow=1;fontFamily=Helvetica;" parent="sGm70nYlVKe_CVyL53Ym-1" source="clZRZakaBaFwRohTCUgK-28" target="clZRZakaBaFwRohTCUgK-26" edge="1">
          <mxGeometry width="50" height="50" relative="1" as="geometry">
            <mxPoint x="1212.04" y="192.5" as="sourcePoint" />
            <mxPoint x="646.0400000000001" y="316.5" as="targetPoint" />
            <Array as="points">
              <mxPoint x="1100" y="-10" />
              <mxPoint x="980" y="90" />
            </Array>
          </mxGeometry>
        </mxCell>
        <mxCell id="clZRZakaBaFwRohTCUgK-30" value="" style="endArrow=block;html=1;endFill=0;fontSize=15;fontStyle=2;curved=1;shadow=1;fontFamily=Helvetica;" parent="sGm70nYlVKe_CVyL53Ym-1" source="clZRZakaBaFwRohTCUgK-33" target="clZRZakaBaFwRohTCUgK-25" edge="1">
          <mxGeometry width="50" height="50" relative="1" as="geometry">
            <mxPoint x="1860" y="-41" as="sourcePoint" />
            <mxPoint x="1670" y="-41" as="targetPoint" />
            <Array as="points">
              <mxPoint x="1150" y="-20" />
              <mxPoint x="970" y="40" />
            </Array>
          </mxGeometry>
        </mxCell>
        <mxCell id="clZRZakaBaFwRohTCUgK-32" value="" style="endArrow=block;html=1;endFill=0;fontSize=15;fontStyle=2;curved=1;shadow=1;fontFamily=Helvetica;" parent="sGm70nYlVKe_CVyL53Ym-1" source="clZRZakaBaFwRohTCUgK-31" target="clZRZakaBaFwRohTCUgK-35" edge="1">
          <mxGeometry width="50" height="50" relative="1" as="geometry">
            <mxPoint x="1190.4" y="629.29" as="sourcePoint" />
            <mxPoint x="1019.4" y="624.29" as="targetPoint" />
            <Array as="points">
              <mxPoint x="1010" y="250" />
            </Array>
          </mxGeometry>
        </mxCell>
        <mxCell id="clZRZakaBaFwRohTCUgK-34" value="Automatic" style="rounded=1;whiteSpace=wrap;html=1;fontSize=15;fontStyle=2;fillColor=#d5e8d4;strokeColor=#82b366;shadow=1;fontFamily=Helvetica;" parent="sGm70nYlVKe_CVyL53Ym-1" vertex="1">
          <mxGeometry x="973.1500000000001" y="186" width="80" height="40" as="geometry" />
        </mxCell>
        <mxCell id="clZRZakaBaFwRohTCUgK-35" value="Manual" style="rounded=1;whiteSpace=wrap;html=1;fontSize=15;fontStyle=2;fillColor=#d5e8d4;strokeColor=#82b366;shadow=1;fontFamily=Helvetica;" parent="sGm70nYlVKe_CVyL53Ym-1" vertex="1">
          <mxGeometry x="862.1500000000003" y="237.49999999999997" width="60" height="40" as="geometry" />
        </mxCell>
        <mxCell id="clZRZakaBaFwRohTCUgK-37" value="" style="endArrow=block;html=1;endFill=0;fontSize=15;fontStyle=2;curved=1;shadow=1;fontFamily=Helvetica;" parent="sGm70nYlVKe_CVyL53Ym-1" source="clZRZakaBaFwRohTCUgK-36" target="clZRZakaBaFwRohTCUgK-34" edge="1">
          <mxGeometry width="50" height="50" relative="1" as="geometry">
            <mxPoint x="2140.75" y="-515" as="sourcePoint" />
            <mxPoint x="2090.75" y="-507.00000000000006" as="targetPoint" />
          </mxGeometry>
        </mxCell>
        <mxCell id="clZRZakaBaFwRohTCUgK-38" value="" style="endArrow=block;html=1;endFill=0;fontSize=15;fontStyle=2;curved=1;shadow=1;fontFamily=Helvetica;" parent="sGm70nYlVKe_CVyL53Ym-1" source="clZRZakaBaFwRohTCUgK-34" target="clZRZakaBaFwRohTCUgK-24" edge="1">
          <mxGeometry width="50" height="50" relative="1" as="geometry">
            <mxPoint x="2035.73" y="-826.62" as="sourcePoint" />
            <mxPoint x="1944.73" y="-782.62" as="targetPoint" />
            <Array as="points" />
          </mxGeometry>
        </mxCell>
        <mxCell id="clZRZakaBaFwRohTCUgK-39" value="" style="endArrow=block;html=1;endFill=0;fontSize=15;fontStyle=2;curved=1;shadow=1;fontFamily=Helvetica;" parent="sGm70nYlVKe_CVyL53Ym-1" source="clZRZakaBaFwRohTCUgK-35" target="clZRZakaBaFwRohTCUgK-24" edge="1">
          <mxGeometry width="50" height="50" relative="1" as="geometry">
            <mxPoint x="1893.73" y="-743.62" as="sourcePoint" />
            <mxPoint x="1854.73" y="-671.62" as="targetPoint" />
          </mxGeometry>
        </mxCell>
        <mxCell id="clZRZakaBaFwRohTCUgK-48" value="CommunicationMechanism" style="rounded=1;whiteSpace=wrap;html=1;fillColor=#d5e8d4;strokeColor=#82b366;fontSize=15;fontStyle=2;shadow=1;fontFamily=Helvetica;" parent="sGm70nYlVKe_CVyL53Ym-1" vertex="1">
          <mxGeometry x="922.8000000000002" y="-77.25" width="193.23" height="40" as="geometry" />
        </mxCell>
        <mxCell id="clZRZakaBaFwRohTCUgK-49" value="" style="endArrow=classic;html=1;dashed=1;fontSize=15;fontStyle=2;fillColor=#e51400;strokeColor=#B20000;shadow=1;strokeWidth=2;curved=1;fontFamily=Helvetica;" parent="sGm70nYlVKe_CVyL53Ym-1" source="sGm70nYlVKe_CVyL53Ym-96" target="clZRZakaBaFwRohTCUgK-26" edge="1">
          <mxGeometry width="50" height="50" relative="1" as="geometry">
            <mxPoint x="360" y="-100" as="sourcePoint" />
            <mxPoint x="733" y="-100" as="targetPoint" />
            <Array as="points">
              <mxPoint x="540" y="-110" />
              <mxPoint x="750" y="100" />
            </Array>
          </mxGeometry>
        </mxCell>
        <mxCell id="clZRZakaBaFwRohTCUgK-50" value="" style="endArrow=block;html=1;endFill=0;fontSize=15;fontStyle=2;curved=1;shadow=1;fontFamily=Helvetica;" parent="sGm70nYlVKe_CVyL53Ym-1" source="clZRZakaBaFwRohTCUgK-24" target="clZRZakaBaFwRohTCUgK-48" edge="1">
          <mxGeometry width="50" height="50" relative="1" as="geometry">
            <mxPoint x="832" y="-84" as="sourcePoint" />
            <mxPoint x="963" y="228" as="targetPoint" />
            <Array as="points">
              <mxPoint x="1020" y="120" />
            </Array>
          </mxGeometry>
        </mxCell>
        <mxCell id="clZRZakaBaFwRohTCUgK-51" value="" style="endArrow=block;html=1;endFill=0;fontSize=15;fontStyle=2;curved=1;shadow=1;fontFamily=Helvetica;" parent="sGm70nYlVKe_CVyL53Ym-1" source="clZRZakaBaFwRohTCUgK-48" target="sGm70nYlVKe_CVyL53Ym-3" edge="1">
          <mxGeometry width="50" height="50" relative="1" as="geometry">
            <mxPoint x="1189" y="90" as="sourcePoint" />
            <mxPoint x="832" y="-89" as="targetPoint" />
            <Array as="points">
              <mxPoint x="960" y="-140" />
            </Array>
          </mxGeometry>
        </mxCell>
        <mxCell id="clZRZakaBaFwRohTCUgK-52" value="" style="endArrow=block;html=1;endFill=0;fontSize=15;fontStyle=2;curved=1;shadow=1;fontFamily=Helvetica;" parent="sGm70nYlVKe_CVyL53Ym-1" source="clZRZakaBaFwRohTCUgK-26" target="clZRZakaBaFwRohTCUgK-48" edge="1">
          <mxGeometry width="50" height="50" relative="1" as="geometry">
            <mxPoint x="1071" y="-86" as="sourcePoint" />
            <mxPoint x="1190" y="90" as="targetPoint" />
            <Array as="points">
              <mxPoint x="985" y="56" />
            </Array>
          </mxGeometry>
        </mxCell>
        <mxCell id="clZRZakaBaFwRohTCUgK-54" value="" style="endArrow=block;html=1;endFill=0;fontSize=15;fontStyle=2;curved=1;shadow=1;fontFamily=Helvetica;" parent="sGm70nYlVKe_CVyL53Ym-1" source="clZRZakaBaFwRohTCUgK-25" target="clZRZakaBaFwRohTCUgK-48" edge="1">
          <mxGeometry width="50" height="50" relative="1" as="geometry">
            <mxPoint x="1176" y="130" as="sourcePoint" />
            <mxPoint x="963" y="231" as="targetPoint" />
            <Array as="points">
              <mxPoint x="970" y="20" />
            </Array>
          </mxGeometry>
        </mxCell>
        <mxCell id="clZRZakaBaFwRohTCUgK-57" value="" style="endArrow=classic;html=1;dashed=1;fontSize=15;fontStyle=2;fillColor=#b0e3e6;strokeColor=#0e8088;shadow=1;strokeWidth=2;curved=1;fontFamily=Helvetica;" parent="sGm70nYlVKe_CVyL53Ym-1" source="sGm70nYlVKe_CVyL53Ym-258" target="clZRZakaBaFwRohTCUgK-25" edge="1">
          <mxGeometry width="50" height="50" relative="1" as="geometry">
            <mxPoint x="569" y="240" as="sourcePoint" />
            <mxPoint x="836" y="209" as="targetPoint" />
            <Array as="points">
              <mxPoint x="640" y="200" />
              <mxPoint x="730" y="70" />
            </Array>
          </mxGeometry>
        </mxCell>
        <mxCell id="clZRZakaBaFwRohTCUgK-59" value="WebsiteForm" style="rounded=1;whiteSpace=wrap;html=1;fontSize=15;fontStyle=2;fillColor=#d5e8d4;strokeColor=#82b366;shadow=1;fontFamily=Helvetica;" parent="sGm70nYlVKe_CVyL53Ym-1" vertex="1">
          <mxGeometry x="1201.5899999999992" y="288.5" width="104.25" height="40" as="geometry" />
        </mxCell>
        <mxCell id="clZRZakaBaFwRohTCUgK-60" value="ServiceAppForm" style="rounded=1;whiteSpace=wrap;html=1;fontSize=15;fontStyle=2;fillColor=#d5e8d4;strokeColor=#82b366;shadow=1;fontFamily=Helvetica;" parent="sGm70nYlVKe_CVyL53Ym-1" vertex="1">
          <mxGeometry x="1139.7199999999991" y="343.5" width="121.75" height="40" as="geometry" />
        </mxCell>
        <mxCell id="clZRZakaBaFwRohTCUgK-61" value="DataProvision" style="rounded=1;whiteSpace=wrap;html=1;fontSize=15;fontStyle=2;fillColor=#d5e8d4;strokeColor=#82b366;shadow=1;fontFamily=Helvetica;" parent="sGm70nYlVKe_CVyL53Ym-1" vertex="1">
          <mxGeometry x="1084.7800000000002" y="288.0000000000001" width="108.26" height="40" as="geometry" />
        </mxCell>
        <mxCell id="clZRZakaBaFwRohTCUgK-62" value="PersonalVisit" style="rounded=1;whiteSpace=wrap;html=1;fillColor=#d5e8d4;strokeColor=#82b366;fontSize=15;fontStyle=2;shadow=1;fontFamily=Helvetica;" parent="sGm70nYlVKe_CVyL53Ym-1" vertex="1">
          <mxGeometry x="1139.7199999999998" y="237.5" width="101.12" height="40" as="geometry" />
        </mxCell>
        <mxCell id="clZRZakaBaFwRohTCUgK-63" value="Email" style="rounded=1;whiteSpace=wrap;html=1;fillColor=#d5e8d4;strokeColor=#82b366;fontSize=15;fontStyle=2;shadow=1;fontFamily=Helvetica;" parent="sGm70nYlVKe_CVyL53Ym-1" vertex="1">
          <mxGeometry x="1228.52" y="-96.69" width="51.34" height="40" as="geometry" />
        </mxCell>
        <mxCell id="clZRZakaBaFwRohTCUgK-64" value="PhoneCall" style="rounded=1;whiteSpace=wrap;html=1;fillColor=#d5e8d4;strokeColor=#82b366;fontSize=15;fontStyle=2;shadow=1;fontFamily=Helvetica;" parent="sGm70nYlVKe_CVyL53Ym-1" vertex="1">
          <mxGeometry x="1253.16" y="-45.94" width="83.34" height="40" as="geometry" />
        </mxCell>
        <mxCell id="clZRZakaBaFwRohTCUgK-65" value="SMS" style="rounded=1;whiteSpace=wrap;html=1;fillColor=#d5e8d4;strokeColor=#82b366;fontSize=15;fontStyle=2;shadow=1;fontFamily=Helvetica;" parent="sGm70nYlVKe_CVyL53Ym-1" vertex="1">
          <mxGeometry x="1190.22" y="-45.94" width="51.34" height="40" as="geometry" />
        </mxCell>
        <mxCell id="clZRZakaBaFwRohTCUgK-66" value="PostalMail" style="rounded=1;whiteSpace=wrap;html=1;fillColor=#d5e8d4;strokeColor=#82b366;fontSize=15;fontStyle=2;shadow=1;fontFamily=Helvetica;" parent="sGm70nYlVKe_CVyL53Ym-1" vertex="1">
          <mxGeometry x="1224.5" y="6.0200000000000005" width="81.34" height="40" as="geometry" />
        </mxCell>
        <mxCell id="clZRZakaBaFwRohTCUgK-70" value="" style="endArrow=classic;html=1;dashed=1;fontSize=15;fontStyle=2;fillColor=#d5e8d4;strokeColor=#82b366;shadow=1;strokeWidth=2;curved=1;fontFamily=Helvetica;" parent="sGm70nYlVKe_CVyL53Ym-1" source="clZRZakaBaFwRohTCUgK-3" target="clZRZakaBaFwRohTCUgK-35" edge="1">
          <mxGeometry width="50" height="50" relative="1" as="geometry">
            <mxPoint x="543" y="327" as="sourcePoint" />
            <mxPoint x="852" y="130" as="targetPoint" />
            <Array as="points">
              <mxPoint x="620" y="310" />
              <mxPoint x="760" y="250" />
            </Array>
          </mxGeometry>
        </mxCell>
        <mxCell id="LnAzktG_7yhrYccO5k81-0" value="" style="endArrow=classic;html=1;dashed=1;fontSize=15;fontStyle=2;fillColor=#e3c800;strokeColor=#B09500;shadow=1;strokeWidth=2;curved=1;fontFamily=Helvetica;" parent="sGm70nYlVKe_CVyL53Ym-1" source="sGm70nYlVKe_CVyL53Ym-96" target="sGm70nYlVKe_CVyL53Ym-82" edge="1">
          <mxGeometry width="50" height="50" relative="1" as="geometry">
            <mxPoint x="866" y="-71" as="sourcePoint" />
            <mxPoint x="760" y="-284" as="targetPoint" />
            <Array as="points">
              <mxPoint x="350" y="-220" />
            </Array>
          </mxGeometry>
        </mxCell>
        <mxCell id="LnAzktG_7yhrYccO5k81-1" value="" style="endArrow=classic;html=1;dashed=1;fontSize=15;fontStyle=2;fillColor=#e3c800;strokeColor=#B09500;shadow=1;strokeWidth=2;curved=1;fontFamily=Helvetica;" parent="sGm70nYlVKe_CVyL53Ym-1" source="clZRZakaBaFwRohTCUgK-5" target="sGm70nYlVKe_CVyL53Ym-82" edge="1">
          <mxGeometry width="50" height="50" relative="1" as="geometry">
            <mxPoint x="321" y="-120" as="sourcePoint" />
            <mxPoint x="355" y="-350" as="targetPoint" />
            <Array as="points">
              <mxPoint x="410" y="-190" />
            </Array>
          </mxGeometry>
        </mxCell>
        <mxCell id="LnAzktG_7yhrYccO5k81-2" value="" style="endArrow=classic;html=1;dashed=1;fontSize=15;fontStyle=2;fillColor=#e3c800;strokeColor=#B09500;shadow=1;strokeWidth=2;curved=1;fontFamily=Helvetica;" parent="sGm70nYlVKe_CVyL53Ym-1" source="sGm70nYlVKe_CVyL53Ym-94" target="sGm70nYlVKe_CVyL53Ym-82" edge="1">
          <mxGeometry width="50" height="50" relative="1" as="geometry">
            <mxPoint x="398" y="-52" as="sourcePoint" />
            <mxPoint x="358" y="-350" as="targetPoint" />
            <Array as="points">
              <mxPoint x="500" y="-130" />
            </Array>
          </mxGeometry>
        </mxCell>
        <mxCell id="LnAzktG_7yhrYccO5k81-3" value="" style="endArrow=block;html=1;endFill=0;fontSize=15;fontStyle=2;curved=1;shadow=1;fontFamily=Helvetica;" parent="sGm70nYlVKe_CVyL53Ym-1" source="sGm70nYlVKe_CVyL53Ym-82" target="sGm70nYlVKe_CVyL53Ym-54" edge="1">
          <mxGeometry width="50" height="50" relative="1" as="geometry">
            <mxPoint x="272" y="-433" as="sourcePoint" />
            <mxPoint x="327" y="-390" as="targetPoint" />
          </mxGeometry>
        </mxCell>
        <mxCell id="9dI_syJKjetTN6tfRjvF-0" value="ViaServiceApp" style="rounded=1;whiteSpace=wrap;html=1;fillColor=#d5e8d4;strokeColor=#82b366;fontSize=15;fontStyle=2;shadow=1;fontFamily=Helvetica;" parent="sGm70nYlVKe_CVyL53Ym-1" vertex="1">
          <mxGeometry x="1047.8400000000001" y="63.49999999999995" width="144.88" height="40" as="geometry" />
        </mxCell>
        <mxCell id="9dI_syJKjetTN6tfRjvF-1" value="ViaWebsite" style="rounded=1;whiteSpace=wrap;html=1;fillColor=#d5e8d4;strokeColor=#82b366;fontSize=15;fontStyle=2;shadow=1;fontFamily=Helvetica;" parent="sGm70nYlVKe_CVyL53Ym-1" vertex="1">
          <mxGeometry x="1064.7700000000002" y="117.50000000000006" width="119.25" height="40" as="geometry" />
        </mxCell>
        <mxCell id="9dI_syJKjetTN6tfRjvF-4" value="PseudoAnonymization" style="rounded=1;whiteSpace=wrap;html=1;fillColor=#fff2cc;strokeColor=#d6b656;fontSize=15;fontStyle=2;shadow=1;fontFamily=Helvetica;" parent="sGm70nYlVKe_CVyL53Ym-1" vertex="1">
          <mxGeometry x="703.0199999999998" y="-459.62" width="162.79" height="40" as="geometry" />
        </mxCell>
        <mxCell id="9dI_syJKjetTN6tfRjvF-5" value="Firewall" style="rounded=1;whiteSpace=wrap;html=1;fillColor=#fff2cc;strokeColor=#d6b656;fontSize=15;fontStyle=2;shadow=1;fontFamily=Helvetica;" parent="sGm70nYlVKe_CVyL53Ym-1" vertex="1">
          <mxGeometry x="744.3899999999999" y="-508.19000000000005" width="73" height="40" as="geometry" />
        </mxCell>
        <mxCell id="9dI_syJKjetTN6tfRjvF-6" value="AccessControls" style="rounded=1;whiteSpace=wrap;html=1;fillColor=#fff2cc;strokeColor=#d6b656;fontSize=15;fontStyle=2;shadow=1;fontFamily=Helvetica;" parent="sGm70nYlVKe_CVyL53Ym-1" vertex="1">
          <mxGeometry x="711.0999999999998" y="-409.37" width="114.81" height="40" as="geometry" />
        </mxCell>
        <mxCell id="9dI_syJKjetTN6tfRjvF-7" value="OwnServers" style="rounded=1;whiteSpace=wrap;html=1;fillColor=#fff2cc;strokeColor=#d6b656;fontSize=15;fontStyle=2;shadow=1;fontFamily=Helvetica;" parent="sGm70nYlVKe_CVyL53Ym-1" vertex="1">
          <mxGeometry x="1071.7800000000002" y="-432.75" width="97.25" height="40" as="geometry" />
        </mxCell>
        <mxCell id="9dI_syJKjetTN6tfRjvF-8" value="EmployedServers" style="rounded=1;whiteSpace=wrap;html=1;fillColor=#fff2cc;strokeColor=#d6b656;fontSize=15;fontStyle=2;shadow=1;fontFamily=Helvetica;" parent="sGm70nYlVKe_CVyL53Ym-1" vertex="1">
          <mxGeometry x="1055.02" y="-379.62" width="129" height="40" as="geometry" />
        </mxCell>
        <mxCell id="9dI_syJKjetTN6tfRjvF-9" value="Contract" style="rounded=1;whiteSpace=wrap;html=1;fillColor=#fff2cc;strokeColor=#d6b656;fontSize=15;fontStyle=2;shadow=1;fontFamily=Helvetica;" parent="sGm70nYlVKe_CVyL53Ym-1" vertex="1">
          <mxGeometry x="922.1499999999997" y="-346" width="65.75" height="40" as="geometry" />
        </mxCell>
        <mxCell id="9dI_syJKjetTN6tfRjvF-10" value="ForFree" style="rounded=1;whiteSpace=wrap;html=1;fillColor=#fff2cc;strokeColor=#d6b656;fontSize=15;fontStyle=2;shadow=1;fontFamily=Helvetica;" parent="sGm70nYlVKe_CVyL53Ym-1" vertex="1">
          <mxGeometry x="952.2799999999999" y="-296" width="65.75" height="40" as="geometry" />
        </mxCell>
        <mxCell id="Fg0WLvCR7teSpbDPgflh-0" value="" style="endArrow=classic;html=1;dashed=1;fontSize=15;fontStyle=2;fillColor=#f5f5f5;strokeColor=#666666;shadow=1;strokeWidth=2;fontFamily=Helvetica;" parent="sGm70nYlVKe_CVyL53Ym-1" source="sGm70nYlVKe_CVyL53Ym-122" target="sGm70nYlVKe_CVyL53Ym-146" edge="1">
          <mxGeometry width="50" height="50" relative="1" as="geometry">
            <mxPoint x="451" y="439" as="sourcePoint" />
            <mxPoint x="-197" y="760" as="targetPoint" />
          </mxGeometry>
        </mxCell>
        <mxCell id="Fg0WLvCR7teSpbDPgflh-2" value="LegalCompliance" style="rounded=1;whiteSpace=wrap;html=1;fillColor=#6a00ff;strokeColor=#3700CC;fontSize=15;fontStyle=2;fontColor=#ffffff;shadow=1;fontFamily=Helvetica;" parent="sGm70nYlVKe_CVyL53Ym-1" vertex="1">
          <mxGeometry x="-15.000000000000007" y="-575" width="130" height="40" as="geometry" />
        </mxCell>
        <mxCell id="Fg0WLvCR7teSpbDPgflh-3" value="" style="endArrow=block;html=1;endFill=0;fontSize=15;fontStyle=2;shadow=1;fontFamily=Helvetica;" parent="sGm70nYlVKe_CVyL53Ym-1" source="Fg0WLvCR7teSpbDPgflh-2" target="sGm70nYlVKe_CVyL53Ym-56" edge="1">
          <mxGeometry width="50" height="50" relative="1" as="geometry">
            <mxPoint x="-80" y="-530" as="sourcePoint" />
            <mxPoint x="-43" y="-504" as="targetPoint" />
          </mxGeometry>
        </mxCell>
        <mxCell id="sGm70nYlVKe_CVyL53Ym-187" value="" style="endArrow=classic;html=1;dashed=1;fontSize=15;fontStyle=2;curved=1;fillColor=#d80073;strokeColor=#FF0080;shadow=1;strokeWidth=5;fontFamily=Helvetica;movable=1;resizable=1;rotatable=1;deletable=1;editable=1;locked=0;connectable=1;" parent="sGm70nYlVKe_CVyL53Ym-1" edge="1">
          <mxGeometry width="50" height="50" relative="1" as="geometry">
            <mxPoint x="-920" y="-503.66" as="sourcePoint" />
            <mxPoint x="-840" y="-503.66" as="targetPoint" />
          </mxGeometry>
        </mxCell>
        <mxCell id="sGm70nYlVKe_CVyL53Ym-188" value="" style="endArrow=classic;html=1;dashed=1;fontSize=15;fontStyle=2;fillColor=#e1d5e7;strokeColor=#9673a6;shadow=1;strokeWidth=2;fontFamily=Helvetica;movable=1;resizable=1;rotatable=1;deletable=1;editable=1;locked=0;connectable=1;" parent="sGm70nYlVKe_CVyL53Ym-1" edge="1">
          <mxGeometry width="50" height="50" relative="1" as="geometry">
            <mxPoint x="-920" y="-270.95000000000005" as="sourcePoint" />
            <mxPoint x="-840" y="-270.95000000000005" as="targetPoint" />
          </mxGeometry>
        </mxCell>
        <mxCell id="sGm70nYlVKe_CVyL53Ym-189" value="" style="endArrow=classic;html=1;dashed=1;fontSize=15;fontStyle=2;fillColor=#dae8fc;strokeColor=#FFCCCC;shadow=1;strokeWidth=2;fontFamily=Helvetica;movable=1;resizable=1;rotatable=1;deletable=1;editable=1;locked=0;connectable=1;" parent="sGm70nYlVKe_CVyL53Ym-1" edge="1">
          <mxGeometry width="50" height="50" relative="1" as="geometry">
            <mxPoint x="-920" y="-386.08000000000004" as="sourcePoint" />
            <mxPoint x="-840" y="-386.08000000000004" as="targetPoint" />
          </mxGeometry>
        </mxCell>
        <mxCell id="sGm70nYlVKe_CVyL53Ym-190" value="" style="endArrow=block;html=1;endFill=0;fontSize=15;fontStyle=2;shadow=1;fontFamily=Helvetica;movable=1;resizable=1;rotatable=1;deletable=1;editable=1;locked=0;connectable=1;" parent="sGm70nYlVKe_CVyL53Ym-1" edge="1">
          <mxGeometry width="50" height="50" relative="1" as="geometry">
            <mxPoint x="-920" y="-543.6600000000001" as="sourcePoint" />
            <mxPoint x="-840" y="-543.6600000000001" as="targetPoint" />
          </mxGeometry>
        </mxCell>
        <mxCell id="sGm70nYlVKe_CVyL53Ym-191" value="" style="endArrow=classic;html=1;dashed=1;fontSize=15;fontStyle=2;curved=1;fillColor=#f0a30a;strokeColor=#B09500;shadow=1;strokeWidth=2;fontFamily=Helvetica;movable=1;resizable=1;rotatable=1;deletable=1;editable=1;locked=0;connectable=1;" parent="sGm70nYlVKe_CVyL53Ym-1" edge="1">
          <mxGeometry width="50" height="50" relative="1" as="geometry">
            <mxPoint x="-920" y="79.99999999999991" as="sourcePoint" />
            <mxPoint x="-840" y="80.48999999999992" as="targetPoint" />
          </mxGeometry>
        </mxCell>
        <mxCell id="sGm70nYlVKe_CVyL53Ym-192" value="" style="endArrow=classic;html=1;dashed=1;fontSize=15;fontStyle=2;curved=1;fillColor=#ffe6cc;strokeColor=#d79b00;shadow=1;strokeWidth=2;fontFamily=Helvetica;movable=1;resizable=1;rotatable=1;deletable=1;editable=1;locked=0;connectable=1;" parent="sGm70nYlVKe_CVyL53Ym-1" edge="1">
          <mxGeometry width="50" height="50" relative="1" as="geometry">
            <mxPoint x="-920" y="119.99999999999991" as="sourcePoint" />
            <mxPoint x="-840.5" y="120.02999999999989" as="targetPoint" />
          </mxGeometry>
        </mxCell>
        <mxCell id="sGm70nYlVKe_CVyL53Ym-193" value="" style="endArrow=classic;html=1;dashed=1;fontSize=15;fontStyle=2;fillColor=#e3c800;strokeColor=#D6B656;shadow=1;strokeWidth=2;curved=1;fontFamily=Helvetica;movable=1;resizable=1;rotatable=1;deletable=1;editable=1;locked=0;connectable=1;" parent="sGm70nYlVKe_CVyL53Ym-1" edge="1">
          <mxGeometry width="50" height="50" relative="1" as="geometry">
            <mxPoint x="-920" y="-153.50000000000009" as="sourcePoint" />
            <mxPoint x="-840" y="-153.50000000000009" as="targetPoint" />
          </mxGeometry>
        </mxCell>
        <mxCell id="sGm70nYlVKe_CVyL53Ym-194" value="" style="endArrow=classic;html=1;dashed=1;fontSize=15;fontStyle=2;startArrow=none;curved=1;fillColor=#008a00;strokeColor=#005700;shadow=1;strokeWidth=2;fontFamily=Helvetica;movable=1;resizable=1;rotatable=1;deletable=1;editable=1;locked=0;connectable=1;" parent="sGm70nYlVKe_CVyL53Ym-1" edge="1">
          <mxGeometry width="50" height="50" relative="1" as="geometry">
            <mxPoint x="-920" y="39.99999999999997" as="sourcePoint" />
            <mxPoint x="-840" y="39.99999999999997" as="targetPoint" />
          </mxGeometry>
        </mxCell>
        <mxCell id="sGm70nYlVKe_CVyL53Ym-195" value="" style="endArrow=classic;html=1;dashed=1;fontSize=15;fontStyle=2;curved=1;fillColor=#1ba1e2;strokeColor=#006EAF;shadow=1;startArrow=none;strokeWidth=2;fontFamily=Helvetica;movable=1;resizable=1;rotatable=1;deletable=1;editable=1;locked=0;connectable=1;" parent="sGm70nYlVKe_CVyL53Ym-1" edge="1">
          <mxGeometry width="50" height="50" relative="1" as="geometry">
            <mxPoint x="-920" y="-3.552713678800501e-14" as="sourcePoint" />
            <mxPoint x="-840" y="0.24999999999996447" as="targetPoint" />
          </mxGeometry>
        </mxCell>
        <mxCell id="sGm70nYlVKe_CVyL53Ym-196" value="considers, hasOlderVersion" style="text;html=1;strokeColor=none;fillColor=none;align=left;verticalAlign=middle;whiteSpace=wrap;rounded=0;fontSize=15;shadow=1;fontFamily=Helvetica;fontStyle=2;movable=1;resizable=1;rotatable=1;deletable=1;editable=1;locked=0;connectable=1;" parent="sGm70nYlVKe_CVyL53Ym-1" vertex="1">
          <mxGeometry x="-834.75" y="-523.6600000000001" width="309.75" height="40" as="geometry" />
        </mxCell>
        <mxCell id="sGm70nYlVKe_CVyL53Ym-197" value="hasMechanism (from DataProtection, TPCollection, TPSharing, DataRetention)" style="text;html=1;strokeColor=none;fillColor=none;align=left;verticalAlign=middle;whiteSpace=wrap;rounded=0;fontSize=15;shadow=1;fontFamily=Helvetica;fontStyle=2;movable=1;resizable=1;rotatable=1;deletable=1;editable=1;locked=0;connectable=1;" parent="sGm70nYlVKe_CVyL53Ym-1" vertex="1">
          <mxGeometry x="-834.75" y="-173.50000000000009" width="309.75" height="40" as="geometry" />
        </mxCell>
        <mxCell id="sGm70nYlVKe_CVyL53Ym-198" value="has_consequence" style="text;html=1;strokeColor=none;fillColor=none;align=left;verticalAlign=middle;whiteSpace=wrap;rounded=0;fontSize=15;shadow=1;fontFamily=Helvetica;fontStyle=2;movable=1;resizable=1;rotatable=1;deletable=1;editable=1;locked=0;connectable=1;" parent="sGm70nYlVKe_CVyL53Ym-1" vertex="1">
          <mxGeometry x="-835" y="-20.000000000000046" width="310" height="40" as="geometry" />
        </mxCell>
        <mxCell id="sGm70nYlVKe_CVyL53Ym-199" value="caused_by" style="text;html=1;strokeColor=none;fillColor=none;align=left;verticalAlign=middle;whiteSpace=wrap;rounded=0;fontSize=15;shadow=1;fontFamily=Helvetica;fontStyle=2;movable=1;resizable=1;rotatable=1;deletable=1;editable=1;locked=0;connectable=1;" parent="sGm70nYlVKe_CVyL53Ym-1" vertex="1">
          <mxGeometry x="-835" y="19.99999999999997" width="310" height="40" as="geometry" />
        </mxCell>
        <mxCell id="sGm70nYlVKe_CVyL53Ym-200" value="initiates" style="text;html=1;strokeColor=none;fillColor=none;align=left;verticalAlign=middle;whiteSpace=wrap;rounded=0;fontSize=15;shadow=1;fontFamily=Helvetica;fontStyle=2;movable=1;resizable=1;rotatable=1;deletable=1;editable=1;locked=0;connectable=1;" parent="sGm70nYlVKe_CVyL53Ym-1" vertex="1">
          <mxGeometry x="-834.75" y="-290.00000000000006" width="309.75" height="40" as="geometry" />
        </mxCell>
        <mxCell id="sGm70nYlVKe_CVyL53Ym-201" value="shares_with" style="text;html=1;strokeColor=none;fillColor=none;align=left;verticalAlign=middle;whiteSpace=wrap;rounded=0;fontSize=15;shadow=1;fontFamily=Helvetica;fontStyle=2;movable=1;resizable=1;rotatable=1;deletable=1;editable=1;locked=0;connectable=1;" parent="sGm70nYlVKe_CVyL53Ym-1" vertex="1">
          <mxGeometry x="-835" y="-406.08000000000004" width="310" height="40" as="geometry" />
        </mxCell>
        <mxCell id="sGm70nYlVKe_CVyL53Ym-202" value="has_mode" style="text;html=1;strokeColor=none;fillColor=none;align=left;verticalAlign=middle;whiteSpace=wrap;rounded=0;fontSize=15;shadow=1;fontFamily=Helvetica;fontStyle=2;movable=1;resizable=1;rotatable=1;deletable=1;editable=1;locked=0;connectable=1;" parent="sGm70nYlVKe_CVyL53Ym-1" vertex="1">
          <mxGeometry x="-835" y="60" width="310" height="40" as="geometry" />
        </mxCell>
        <mxCell id="sGm70nYlVKe_CVyL53Ym-203" value="inheritance" style="text;html=1;strokeColor=none;fillColor=none;align=left;verticalAlign=middle;whiteSpace=wrap;rounded=0;fontSize=15;shadow=1;fontFamily=Helvetica;fontStyle=2;movable=1;resizable=1;rotatable=1;deletable=1;editable=1;locked=0;connectable=1;" parent="sGm70nYlVKe_CVyL53Ym-1" vertex="1">
          <mxGeometry x="-834.75" y="-563.6600000000001" width="309.75" height="40" as="geometry" />
        </mxCell>
        <mxCell id="sGm70nYlVKe_CVyL53Ym-204" value="lasts_for" style="text;html=1;strokeColor=none;fillColor=none;align=left;verticalAlign=middle;whiteSpace=wrap;rounded=0;fontSize=15;shadow=1;fontFamily=Helvetica;fontStyle=2;movable=1;resizable=1;rotatable=1;deletable=1;editable=1;locked=0;connectable=1;" parent="sGm70nYlVKe_CVyL53Ym-1" vertex="1">
          <mxGeometry x="-835" y="99.99999999999991" width="310" height="40" as="geometry" />
        </mxCell>
        <mxCell id="sGm70nYlVKe_CVyL53Ym-205" value="" style="endArrow=classic;html=1;dashed=1;fontSize=15;fontStyle=2;shadow=1;fillColor=#76608a;strokeColor=#432D57;strokeWidth=2;fontFamily=Helvetica;movable=1;resizable=1;rotatable=1;deletable=1;editable=1;locked=0;connectable=1;" parent="sGm70nYlVKe_CVyL53Ym-1" edge="1">
          <mxGeometry width="50" height="50" relative="1" as="geometry">
            <mxPoint x="-920" y="159.99999999999991" as="sourcePoint" />
            <mxPoint x="-840" y="159.99999999999991" as="targetPoint" />
          </mxGeometry>
        </mxCell>
        <mxCell id="sGm70nYlVKe_CVyL53Ym-206" value="" style="endArrow=classic;html=1;dashed=1;fontSize=15;fontStyle=2;fillColor=#f5f5f5;strokeColor=#666666;shadow=1;strokeWidth=2;fontFamily=Helvetica;movable=1;resizable=1;rotatable=1;deletable=1;editable=1;locked=0;connectable=1;" parent="sGm70nYlVKe_CVyL53Ym-1" edge="1">
          <mxGeometry width="50" height="50" relative="1" as="geometry">
            <mxPoint x="-920" y="-193.50000000000009" as="sourcePoint" />
            <mxPoint x="-840" y="-193.50000000000009" as="targetPoint" />
          </mxGeometry>
        </mxCell>
        <mxCell id="sGm70nYlVKe_CVyL53Ym-207" value="appliesToData" style="text;html=1;strokeColor=none;fillColor=none;align=left;verticalAlign=middle;whiteSpace=wrap;rounded=0;fontSize=15;shadow=1;fontFamily=Helvetica;fontStyle=2;movable=1;resizable=1;rotatable=1;deletable=1;editable=1;locked=0;connectable=1;" parent="sGm70nYlVKe_CVyL53Ym-1" vertex="1">
          <mxGeometry x="-834.75" y="-213.50000000000009" width="309.75" height="40" as="geometry" />
        </mxCell>
        <mxCell id="sGm70nYlVKe_CVyL53Ym-208" value="has_special_category" style="text;html=1;strokeColor=none;fillColor=none;align=left;verticalAlign=middle;whiteSpace=wrap;rounded=0;fontSize=15;shadow=1;fontFamily=Helvetica;fontStyle=2;movable=1;resizable=1;rotatable=1;deletable=1;editable=1;locked=0;connectable=1;" parent="sGm70nYlVKe_CVyL53Ym-1" vertex="1">
          <mxGeometry x="-835" y="139.99999999999991" width="310" height="40" as="geometry" />
        </mxCell>
        <mxCell id="sGm70nYlVKe_CVyL53Ym-247" value="" style="endArrow=classic;html=1;dashed=1;fontSize=15;fontStyle=2;fillColor=#dae8fc;strokeColor=#6c8ebf;shadow=1;strokeWidth=5;curved=1;fontFamily=Helvetica;movable=1;resizable=1;rotatable=1;deletable=1;editable=1;locked=0;connectable=1;" parent="sGm70nYlVKe_CVyL53Ym-1" edge="1">
          <mxGeometry width="50" height="50" relative="1" as="geometry">
            <mxPoint x="-920" y="-426.08000000000004" as="sourcePoint" />
            <mxPoint x="-840" y="-426.08000000000004" as="targetPoint" />
            <Array as="points" />
          </mxGeometry>
        </mxCell>
        <mxCell id="sGm70nYlVKe_CVyL53Ym-248" value="providesData" style="text;html=1;strokeColor=none;fillColor=none;align=left;verticalAlign=middle;whiteSpace=wrap;rounded=0;fontSize=15;shadow=1;fontFamily=Helvetica;fontStyle=2;movable=1;resizable=1;rotatable=1;deletable=1;editable=1;locked=0;connectable=1;" parent="sGm70nYlVKe_CVyL53Ym-1" vertex="1">
          <mxGeometry x="-834.75" y="-446.08000000000004" width="309.75" height="40" as="geometry" />
        </mxCell>
        <mxCell id="sGm70nYlVKe_CVyL53Ym-249" value="&lt;h1&gt;&lt;i&gt;R&lt;/i&gt;&lt;i&gt;elations&lt;/i&gt;&lt;br&gt;&lt;/h1&gt;" style="text;html=1;strokeColor=none;fillColor=none;spacing=5;spacingTop=-20;whiteSpace=wrap;overflow=hidden;rounded=0;fontSize=16;shadow=1;movable=1;resizable=1;rotatable=1;deletable=1;editable=1;locked=0;connectable=1;" parent="sGm70nYlVKe_CVyL53Ym-1" vertex="1">
          <mxGeometry x="-930" y="-617.96" width="310" height="55.5" as="geometry" />
        </mxCell>
        <mxCell id="9dI_syJKjetTN6tfRjvF-11" value="" style="endArrow=classic;html=1;dashed=1;fontSize=15;fontStyle=2;fillColor=#d5e8d4;strokeColor=#82b366;shadow=1;strokeWidth=2;curved=1;fontFamily=Helvetica;movable=1;resizable=1;rotatable=1;deletable=1;editable=1;locked=0;connectable=1;" parent="sGm70nYlVKe_CVyL53Ym-1" edge="1">
          <mxGeometry width="50" height="50" relative="1" as="geometry">
            <mxPoint x="-920" y="-33.500000000000064" as="sourcePoint" />
            <mxPoint x="-840" y="-33.47000000000009" as="targetPoint" />
          </mxGeometry>
        </mxCell>
        <mxCell id="9dI_syJKjetTN6tfRjvF-12" value="has_mechanism (from UserNotification)" style="text;html=1;strokeColor=none;fillColor=none;align=left;verticalAlign=middle;whiteSpace=wrap;rounded=0;fontSize=15;shadow=1;fontFamily=Helvetica;fontStyle=2;movable=1;resizable=1;rotatable=1;deletable=1;editable=1;locked=0;connectable=1;" parent="sGm70nYlVKe_CVyL53Ym-1" vertex="1">
          <mxGeometry x="-835" y="-53.500000000000064" width="310" height="40" as="geometry" />
        </mxCell>
        <mxCell id="9dI_syJKjetTN6tfRjvF-13" value="" style="endArrow=classic;html=1;dashed=1;fontSize=15;fontStyle=2;fillColor=#b0e3e6;strokeColor=#0e8088;shadow=1;strokeWidth=2;curved=1;fontFamily=Helvetica;movable=1;resizable=1;rotatable=1;deletable=1;editable=1;locked=0;connectable=1;" parent="sGm70nYlVKe_CVyL53Ym-1" edge="1">
          <mxGeometry width="50" height="50" relative="1" as="geometry">
            <mxPoint x="-920" y="-74.25000000000006" as="sourcePoint" />
            <mxPoint x="-840" y="-74.25000000000006" as="targetPoint" />
          </mxGeometry>
        </mxCell>
        <mxCell id="9dI_syJKjetTN6tfRjvF-15" value="" style="endArrow=classic;html=1;dashed=1;fontSize=15;fontStyle=2;fillColor=#e51400;strokeColor=#B20000;shadow=1;strokeWidth=2;curved=1;fontFamily=Helvetica;movable=1;resizable=1;rotatable=1;deletable=1;editable=1;locked=0;connectable=1;" parent="sGm70nYlVKe_CVyL53Ym-1" edge="1">
          <mxGeometry width="50" height="50" relative="1" as="geometry">
            <mxPoint x="-920" y="-113.50000000000006" as="sourcePoint" />
            <mxPoint x="-840.3699999999999" y="-113.50000000000006" as="targetPoint" />
          </mxGeometry>
        </mxCell>
        <mxCell id="9dI_syJKjetTN6tfRjvF-16" value="has_mechanism (from FPNotification)" style="text;html=1;strokeColor=none;fillColor=none;align=left;verticalAlign=middle;whiteSpace=wrap;rounded=0;fontSize=15;shadow=1;fontFamily=Helvetica;fontStyle=2;movable=1;resizable=1;rotatable=1;deletable=1;editable=1;locked=0;connectable=1;" parent="sGm70nYlVKe_CVyL53Ym-1" vertex="1">
          <mxGeometry x="-835" y="-93.50000000000006" width="310" height="40" as="geometry" />
        </mxCell>
        <mxCell id="9dI_syJKjetTN6tfRjvF-18" value="has_mechanism (from UserNotification)" style="text;html=1;strokeColor=none;fillColor=none;align=left;verticalAlign=middle;whiteSpace=wrap;rounded=0;fontSize=15;shadow=1;fontFamily=Helvetica;fontStyle=2;movable=1;resizable=1;rotatable=1;deletable=1;editable=1;locked=0;connectable=1;" parent="sGm70nYlVKe_CVyL53Ym-1" vertex="1">
          <mxGeometry x="-834.75" y="-133.50000000000006" width="309.75" height="40" as="geometry" />
        </mxCell>
        <mxCell id="9dI_syJKjetTN6tfRjvF-19" value="" style="endArrow=classic;html=1;dashed=1;fontSize=15;fontStyle=2;shadow=1;fillColor=#76608a;strokeColor=#BD7000;strokeWidth=2;fontFamily=Helvetica;movable=1;resizable=1;rotatable=1;deletable=1;editable=1;locked=0;connectable=1;" parent="sGm70nYlVKe_CVyL53Ym-1" edge="1">
          <mxGeometry width="50" height="50" relative="1" as="geometry">
            <mxPoint x="-920" y="199.9999999999999" as="sourcePoint" />
            <mxPoint x="-840" y="199.9999999999999" as="targetPoint" />
          </mxGeometry>
        </mxCell>
        <mxCell id="9dI_syJKjetTN6tfRjvF-20" value="has_scope" style="text;html=1;strokeColor=none;fillColor=none;align=left;verticalAlign=middle;whiteSpace=wrap;rounded=0;fontSize=15;shadow=1;fontFamily=Helvetica;fontStyle=2;movable=1;resizable=1;rotatable=1;deletable=1;editable=1;locked=0;connectable=1;" parent="sGm70nYlVKe_CVyL53Ym-1" vertex="1">
          <mxGeometry x="-835" y="179.99999999999991" width="310" height="40" as="geometry" />
        </mxCell>
        <mxCell id="9dI_syJKjetTN6tfRjvF-27" value="" style="endArrow=classic;html=1;dashed=1;fontSize=15;fontStyle=2;shadow=1;fillColor=#76608a;strokeColor=#001DBC;strokeWidth=2;fontFamily=Helvetica;movable=1;resizable=1;rotatable=1;deletable=1;editable=1;locked=0;connectable=1;" parent="sGm70nYlVKe_CVyL53Ym-1" edge="1">
          <mxGeometry width="50" height="50" relative="1" as="geometry">
            <mxPoint x="-920" y="239.99999999999994" as="sourcePoint" />
            <mxPoint x="-840" y="239.99999999999994" as="targetPoint" />
          </mxGeometry>
        </mxCell>
        <mxCell id="9dI_syJKjetTN6tfRjvF-28" value="has_purpose" style="text;html=1;strokeColor=none;fillColor=none;align=left;verticalAlign=middle;whiteSpace=wrap;rounded=0;fontSize=15;shadow=1;fontFamily=Helvetica;fontStyle=2;movable=1;resizable=1;rotatable=1;deletable=1;editable=1;locked=0;connectable=1;" parent="sGm70nYlVKe_CVyL53Ym-1" vertex="1">
          <mxGeometry x="-835" y="219.99999999999994" width="310" height="40" as="geometry" />
        </mxCell>
        <mxCell id="9dI_syJKjetTN6tfRjvF-29" value="" style="endArrow=classic;html=1;dashed=1;fontSize=15;fontStyle=2;shadow=1;fillColor=#76608a;strokeColor=#C73500;strokeWidth=2;fontFamily=Helvetica;movable=1;resizable=1;rotatable=1;deletable=1;editable=1;locked=0;connectable=1;" parent="sGm70nYlVKe_CVyL53Ym-1" edge="1">
          <mxGeometry width="50" height="50" relative="1" as="geometry">
            <mxPoint x="-920" y="279.99999999999994" as="sourcePoint" />
            <mxPoint x="-840" y="279.99999999999994" as="targetPoint" />
          </mxGeometry>
        </mxCell>
        <mxCell id="9dI_syJKjetTN6tfRjvF-30" value="has_basis" style="text;html=1;strokeColor=none;fillColor=none;align=left;verticalAlign=middle;whiteSpace=wrap;rounded=0;fontSize=15;shadow=1;fontFamily=Helvetica;fontStyle=2;movable=1;resizable=1;rotatable=1;deletable=1;editable=1;locked=0;connectable=1;" parent="sGm70nYlVKe_CVyL53Ym-1" vertex="1">
          <mxGeometry x="-835" y="259.99999999999994" width="310" height="40" as="geometry" />
        </mxCell>
        <mxCell id="Fg0WLvCR7teSpbDPgflh-4" value="" style="endArrow=classic;html=1;dashed=1;fontSize=15;fontStyle=2;fillColor=#e1d5e7;strokeColor=#9999FF;shadow=1;strokeWidth=2;fontFamily=Helvetica;movable=1;resizable=1;rotatable=1;deletable=1;editable=1;locked=0;connectable=1;" parent="sGm70nYlVKe_CVyL53Ym-1" edge="1">
          <mxGeometry width="50" height="50" relative="1" as="geometry">
            <mxPoint x="-920" y="-234.25000000000009" as="sourcePoint" />
            <mxPoint x="-840" y="-234.25000000000009" as="targetPoint" />
          </mxGeometry>
        </mxCell>
        <mxCell id="Fg0WLvCR7teSpbDPgflh-5" value="binded_to" style="text;html=1;strokeColor=none;fillColor=none;align=left;verticalAlign=middle;whiteSpace=wrap;rounded=0;fontSize=15;shadow=1;fontFamily=Helvetica;fontStyle=2;movable=1;resizable=1;rotatable=1;deletable=1;editable=1;locked=0;connectable=1;" parent="sGm70nYlVKe_CVyL53Ym-1" vertex="1">
          <mxGeometry x="-834.75" y="-254.25000000000006" width="309.75" height="40" as="geometry" />
        </mxCell>
        <mxCell id="Fg0WLvCR7teSpbDPgflh-6" value="" style="endArrow=classic;html=1;dashed=1;fontSize=15;fontStyle=2;fillColor=#dae8fc;strokeColor=#6c8ebf;shadow=1;strokeWidth=2;fontFamily=Helvetica;movable=1;resizable=1;rotatable=1;deletable=1;editable=1;locked=0;connectable=1;" parent="sGm70nYlVKe_CVyL53Ym-1" edge="1">
          <mxGeometry width="50" height="50" relative="1" as="geometry">
            <mxPoint x="-920" y="-349.18000000000006" as="sourcePoint" />
            <mxPoint x="-840" y="-349.18000000000006" as="targetPoint" />
          </mxGeometry>
        </mxCell>
        <mxCell id="Fg0WLvCR7teSpbDPgflh-7" value="collects_from" style="text;html=1;strokeColor=none;fillColor=none;align=left;verticalAlign=middle;whiteSpace=wrap;rounded=0;fontSize=15;shadow=1;fontFamily=Helvetica;fontStyle=2;movable=1;resizable=1;rotatable=1;deletable=1;editable=1;locked=0;connectable=1;" parent="sGm70nYlVKe_CVyL53Ym-1" vertex="1">
          <mxGeometry x="-835" y="-369.18000000000006" width="310" height="40" as="geometry" />
        </mxCell>
        <mxCell id="Fg0WLvCR7teSpbDPgflh-8" value="" style="endArrow=classic;html=1;dashed=1;fontSize=15;fontStyle=2;fillColor=#dae8fc;strokeColor=#C0D1BE;shadow=1;strokeWidth=2;fontFamily=Helvetica;movable=1;resizable=1;rotatable=1;deletable=1;editable=1;locked=0;connectable=1;" parent="sGm70nYlVKe_CVyL53Ym-1" edge="1">
          <mxGeometry width="50" height="50" relative="1" as="geometry">
            <mxPoint x="-920" y="-311.88000000000005" as="sourcePoint" />
            <mxPoint x="-840" y="-311.88000000000005" as="targetPoint" />
          </mxGeometry>
        </mxCell>
        <mxCell id="Fg0WLvCR7teSpbDPgflh-9" value="notifies" style="text;html=1;strokeColor=none;fillColor=none;align=left;verticalAlign=middle;whiteSpace=wrap;rounded=0;fontSize=15;shadow=1;fontFamily=Helvetica;fontStyle=2;movable=1;resizable=1;rotatable=1;deletable=1;editable=1;locked=0;connectable=1;" parent="sGm70nYlVKe_CVyL53Ym-1" vertex="1">
          <mxGeometry x="-835" y="-331.88000000000005" width="310" height="40" as="geometry" />
        </mxCell>
        <mxCell id="Fg0WLvCR7teSpbDPgflh-10" value="" style="endArrow=classic;html=1;dashed=1;fontSize=15;fontStyle=2;fillColor=#f5f5f5;strokeColor=#666666;shadow=1;strokeWidth=2;fontFamily=Helvetica;" parent="sGm70nYlVKe_CVyL53Ym-1" source="sGm70nYlVKe_CVyL53Ym-5" target="sGm70nYlVKe_CVyL53Ym-146" edge="1">
          <mxGeometry width="50" height="50" relative="1" as="geometry">
            <mxPoint x="451" y="439" as="sourcePoint" />
            <mxPoint x="-197" y="760" as="targetPoint" />
          </mxGeometry>
        </mxCell>
        <mxCell id="Fg0WLvCR7teSpbDPgflh-11" value="" style="endArrow=classic;html=1;dashed=1;fontSize=15;fontStyle=2;curved=1;fillColor=#d80073;strokeColor=#FF99FF;shadow=1;strokeWidth=5;fontFamily=Helvetica;movable=1;resizable=1;rotatable=1;deletable=1;editable=1;locked=0;connectable=1;" parent="sGm70nYlVKe_CVyL53Ym-1" edge="1">
          <mxGeometry width="50" height="50" relative="1" as="geometry">
            <mxPoint x="-920" y="-463.66" as="sourcePoint" />
            <mxPoint x="-840" y="-463.66" as="targetPoint" />
          </mxGeometry>
        </mxCell>
        <mxCell id="Fg0WLvCR7teSpbDPgflh-12" value="newer_than" style="text;html=1;strokeColor=none;fillColor=none;align=left;verticalAlign=middle;whiteSpace=wrap;rounded=0;fontSize=15;shadow=1;fontFamily=Helvetica;fontStyle=2;movable=1;resizable=1;rotatable=1;deletable=1;editable=1;locked=0;connectable=1;" parent="sGm70nYlVKe_CVyL53Ym-1" vertex="1">
          <mxGeometry x="-834.75" y="-483.66" width="309.75" height="40" as="geometry" />
        </mxCell>
      </root>
    </mxGraphModel>
  </diagram>
</mxfile>
